<?xml version="1.0" encoding="iso-8859-1"?>
<!-- Generator: Adobe Illustrator 19.0.0, SVG Export Plug-In . SVG Version: 6.00 Build 0)  -->
<svg version="1.1" id="Capa_1" xmlns="http://www.w3.org/2000/svg" xmlns:xlink="http://www.w3.org/1999/xlink" x="0px" y="0px"
	 viewBox="0 0 512 512" style="enable-background:new 0 0 512 512;" xml:space="preserve">
<g>
	<g transform="translate(1 1)">
		<g>
			<path style="fill:#F57C00;" d="M16.067,434.2h119.467c4.713,0,8.533,3.821,8.533,8.533v51.2c0,4.713-3.821,8.533-8.533,8.533
				H16.067c-4.713,0-8.533-3.821-8.533-8.533v-51.2C7.533,438.021,11.354,434.2,16.067,434.2z"/>
			<path style="fill:#F57C00;" d="M195.267,434.2h119.467c4.713,0,8.533,3.821,8.533,8.533v51.2c0,4.713-3.821,8.533-8.533,8.533
				H195.267c-4.713,0-8.533-3.821-8.533-8.533v-51.2C186.733,438.021,190.554,434.2,195.267,434.2z"/>
			<path style="fill:#F57C00;" d="M374.467,434.2h119.467c4.713,0,8.533,3.821,8.533,8.533v51.2c0,4.713-3.821,8.533-8.533,8.533
				H374.467c-4.713,0-8.533-3.821-8.533-8.533v-51.2C365.933,438.021,369.754,434.2,374.467,434.2z"/>
		</g>
		<g>
			<path style="fill:#FF9801;" d="M16.067,434.2h93.867c4.713,0,8.533,3.821,8.533,8.533v51.2c0,4.713-3.821,8.533-8.533,8.533
				H16.067c-4.713,0-8.533-3.821-8.533-8.533v-51.2C7.533,438.021,11.354,434.2,16.067,434.2z"/>
			<path style="fill:#FF9801;" d="M195.267,434.2h93.867c4.713,0,8.533,3.821,8.533,8.533v51.2c0,4.713-3.821,8.533-8.533,8.533
				h-93.867c-4.713,0-8.533-3.821-8.533-8.533v-51.2C186.733,438.021,190.554,434.2,195.267,434.2z"/>
			<path style="fill:#FF9801;" d="M374.467,434.2h93.867c4.713,0,8.533,3.821,8.533,8.533v51.2c0,4.713-3.821,8.533-8.533,8.533
				h-93.867c-4.713,0-8.533-3.821-8.533-8.533v-51.2C365.933,438.021,369.754,434.2,374.467,434.2z"/>
		</g>
		<path style="fill:#D84315;" d="M400.067,109.933c9.414,0.028,17.039,7.652,17.067,17.067v68.267
			c-0.028,9.414-7.653,17.039-17.067,17.067c9.414,0.028,17.039,7.652,17.067,17.067v68.267
			c-0.028,9.414-7.653,17.039-17.067,17.067H109.933c-9.414-0.028-17.039-7.652-17.067-17.067V229.4
			c0.028-9.414,7.652-17.039,17.067-17.067c-9.414-0.028-17.039-7.653-17.067-17.067V127c0.028-9.414,7.652-17.039,17.067-17.067
			c-9.414-0.028-17.039-7.653-17.067-17.067V24.6c0.028-9.414,7.652-17.039,17.067-17.067h290.133
			c9.414,0.028,17.039,7.652,17.067,17.067v68.267C417.106,102.281,409.481,109.906,400.067,109.933z"/>
		<path style="fill:#FF5722;" d="M374.467,109.933c9.414,0.028,17.039,7.652,17.067,17.067v68.267
			c-0.028,9.414-7.652,17.039-17.067,17.067c9.414,0.028,17.039,7.652,17.067,17.067v68.267
			c-0.028,9.414-7.652,17.039-17.067,17.067H109.933c-9.414-0.028-17.039-7.652-17.067-17.067V229.4
			c0.028-9.414,7.652-17.039,17.067-17.067c-9.414-0.028-17.039-7.653-17.067-17.067V127c0.028-9.414,7.652-17.039,17.067-17.067
			c-9.414-0.028-17.039-7.653-17.067-17.067V24.6c0.028-9.414,7.652-17.039,17.067-17.067h264.533
			c9.414,0.028,17.039,7.652,17.067,17.067v68.267C391.506,102.281,383.881,109.906,374.467,109.933z"/>
		<path style="fill:#F57C00;" d="M417.133,229.4v68.267c-0.028,9.414-7.653,17.039-17.067,17.067h-25.6
			c9.414-0.028,17.039-7.652,17.067-17.067V229.4c-0.027-9.414-7.652-17.039-17.067-17.067h25.6
			C409.481,212.361,417.106,219.986,417.133,229.4z"/>
		<path style="fill:#FF9801;" d="M109.933,212.333h264.533c9.426,0,17.067,7.641,17.067,17.067v68.267
			c0,9.426-7.641,17.067-17.067,17.067H109.933c-9.426,0-17.067-7.641-17.067-17.067V229.4
			C92.867,219.974,100.508,212.333,109.933,212.333z"/>
		<path style="fill:#F57C00;" d="M417.133,24.6v68.267c-0.028,9.414-7.653,17.039-17.067,17.067h-25.6
			c9.414-0.028,17.039-7.653,17.067-17.067V24.6c-0.027-9.414-7.652-17.039-17.067-17.067h25.6
			C409.481,7.561,417.106,15.186,417.133,24.6z"/>
		<path style="fill:#FF9801;" d="M109.933,7.533h264.533c9.426,0,17.067,7.641,17.067,17.067v68.267
			c0,9.426-7.641,17.067-17.067,17.067H109.933c-9.426,0-17.067-7.641-17.067-17.067V24.6
			C92.867,15.174,100.508,7.533,109.933,7.533z"/>
		<path style="fill:#9D27B0;" d="M321.816,180.519c3.046,3.923,4.696,8.751,4.688,13.718c-0.008,11.081-8.07,20.513-19.015,22.245
			c-0.104,0.562-0.237,1.119-0.397,1.668c-0.063,0.324-0.152,0.643-0.264,0.954c-0.186,0.676-0.416,1.34-0.689,1.986
			c-0.187,0.517-0.408,1.021-0.662,1.509c-0.102,0.275-0.226,0.54-0.371,0.795c-0.177,0.393-0.38,0.774-0.609,1.139
			c-0.106,0.212-0.238,0.424-0.371,0.636c-0.44,0.73-0.917,1.438-1.43,2.119c-0.318,0.424-0.636,0.821-0.953,1.218
			c-1.309,1.552-2.793,2.947-4.423,4.158c-0.344,0.265-0.689,0.503-1.033,0.741c-1.063,0.717-2.179,1.355-3.337,1.907
			c-0.742,0.365-1.502,0.692-2.278,0.98c-0.503,0.185-1.006,0.344-1.509,0.503c-0.344,0.106-0.715,0.212-1.059,0.291
			c-0.853,0.23-1.72,0.407-2.595,0.53c-0.318,0.053-0.662,0.106-1.006,0.132c-1.001,0.129-2.01,0.191-3.019,0.185
			c-14.624-0.005-26.477-11.859-26.483-26.483c-0.005,14.624-11.859,26.477-26.483,26.483c-1.009,0.006-2.018-0.056-3.019-0.185
			c-0.344-0.026-0.689-0.08-1.006-0.132c-0.875-0.123-1.742-0.3-2.595-0.53c-0.344-0.08-0.715-0.185-1.059-0.291
			c-0.503-0.159-1.006-0.318-1.509-0.503c-0.775-0.288-1.535-0.615-2.278-0.98c-1.158-0.552-2.273-1.189-3.337-1.907
			c-0.344-0.238-0.688-0.477-1.033-0.741c-1.63-1.211-3.114-2.606-4.423-4.158c-0.318-0.397-0.636-0.794-0.953-1.218
			c-0.513-0.681-0.99-1.388-1.43-2.119c-0.132-0.212-0.265-0.424-0.371-0.636c-0.229-0.365-0.432-0.746-0.609-1.139
			c-0.145-0.254-0.269-0.52-0.371-0.795c-0.254-0.488-0.475-0.992-0.662-1.509c-0.273-0.646-0.503-1.31-0.689-1.986
			c-0.113-0.311-0.201-0.629-0.265-0.954c-0.16-0.549-0.293-1.106-0.397-1.668c-10.945-1.733-19.007-11.164-19.015-22.245
			c-0.009-4.967,1.641-9.794,4.687-13.718c-6.827-4.874-10.589-12.978-9.905-21.339c0.684-8.36,5.713-15.745,13.241-19.445
			c-1.799-3.163-2.74-6.742-2.728-10.381c-0.002-5.619,2.23-11.009,6.204-14.983s9.363-6.205,14.983-6.204h0.026
			c-0.026-0.45-0.026-0.874-0.026-1.324c0-12.432,10.078-22.51,22.51-22.51S255,94.412,255,106.844
			c0-12.432,10.078-22.51,22.51-22.51s22.51,10.078,22.51,22.51c0,0.45,0,0.874-0.026,1.324h0.026
			c5.619-0.002,11.009,2.23,14.983,6.204s6.205,9.363,6.204,14.983c0.012,3.639-0.928,7.218-2.728,10.381
			c7.528,3.7,12.557,11.085,13.241,19.445C332.404,167.541,328.642,175.645,321.816,180.519L321.816,180.519z"/>
	</g>
	<g>
		<path d="M48.725,463.275c-0.407-0.366-0.834-0.708-1.279-1.025c-0.475-0.325-0.992-0.582-1.538-0.767
			c-0.485-0.246-1.003-0.42-1.537-0.517c-1.664-0.348-3.394-0.167-4.95,0.517c-2.141,0.78-3.828,2.467-4.608,4.608
			c-1.36,3.176-0.65,6.86,1.793,9.302c2.443,2.442,6.128,3.151,9.303,1.79c1.034-0.432,1.986-1.038,2.816-1.791
			c0.751-0.832,1.357-1.784,1.792-2.817c0.911-2.065,0.911-4.418,0-6.483C50.104,465.048,49.496,464.092,48.725,463.275z"/>
		<path d="M227.925,463.275c-0.83-0.753-1.783-1.359-2.817-1.792c-2.069-0.9-4.419-0.9-6.487,0
			c-1.033,0.433-1.984,1.039-2.813,1.792c-0.773,0.815-1.383,1.772-1.796,2.817c-0.436,1.026-0.667,2.127-0.68,3.242
			c-0.029,1.119,0.204,2.229,0.679,3.242c0.435,1.034,1.042,1.986,1.796,2.817c2.441,2.444,6.125,3.154,9.3,1.792
			c1.034-0.433,1.987-1.039,2.817-1.792c0.751-0.832,1.357-1.784,1.792-2.817c0.911-2.065,0.911-4.418,0-6.483
			C229.304,465.048,228.696,464.092,227.925,463.275z"/>
		<path d="M503.467,426.667h-51.2v-51.2c-0.015-14.132-11.468-25.585-25.6-25.6H264.533v-25.6h136.533
			c14.132-0.015,25.585-11.468,25.6-25.6V230.4c-0.02-6.319-2.394-12.404-6.658-17.067c4.265-4.663,6.639-10.748,6.658-17.067V128
			c-0.02-6.319-2.394-12.404-6.658-17.067c4.265-4.663,6.639-10.748,6.658-17.067V25.6c-0.015-14.132-11.468-25.585-25.6-25.6
			H110.933c-14.132,0.015-25.585,11.468-25.6,25.6v68.267c0.02,6.319,2.394,12.404,6.658,17.067
			c-4.265,4.663-6.639,10.748-6.658,17.067v68.267c0.02,6.319,2.394,12.404,6.658,17.067c-4.265,4.663-6.639,10.748-6.658,17.067
			v68.267c0.015,14.132,11.468,25.585,25.6,25.6h136.533v25.6H85.333c-14.132,0.015-25.585,11.468-25.6,25.6v51.2h-51.2
			c-2.263-0.001-4.434,0.898-6.035,2.499c-1.6,1.6-2.499,3.771-2.499,6.035v68.267c-0.001,2.263,0.898,4.434,2.499,6.035
			c1.6,1.6,3.771,2.499,6.035,2.499h136.533c2.263,0.001,4.434-0.898,6.035-2.499c1.6-1.6,2.499-3.771,2.499-6.035V435.2
			c0.001-2.263-0.898-4.434-2.499-6.035c-1.6-1.6-3.771-2.499-6.035-2.499H76.8v-51.2c0.005-4.711,3.822-8.529,8.533-8.533h162.133
			v59.733h-59.733c-2.263-0.001-4.434,0.898-6.035,2.499c-1.6,1.6-2.499,3.771-2.499,6.035v68.267
			c-0.001,2.263,0.898,4.434,2.499,6.035c1.6,1.6,3.771,2.499,6.035,2.499h136.533c2.263,0.001,4.434-0.898,6.035-2.499
			c1.6-1.6,2.499-3.771,2.499-6.035V435.2c0.001-2.263-0.898-4.434-2.499-6.035c-1.6-1.6-3.771-2.499-6.035-2.499h-59.733v-59.733
			h162.133c4.711,0.005,8.529,3.822,8.533,8.533v51.2h-68.267c-2.263-0.001-4.434,0.898-6.035,2.499
			c-1.6,1.6-2.499,3.771-2.499,6.035v68.267c-0.001,2.263,0.898,4.434,2.499,6.035c1.6,1.6,3.771,2.499,6.035,2.499h136.533
			c2.263,0.001,4.434-0.898,6.035-2.499c1.6-1.6,2.499-3.771,2.499-6.035V435.2c0.001-2.263-0.898-4.434-2.499-6.035
			C507.901,427.565,505.73,426.666,503.467,426.667z M290.163,237.792l-3.392-7.917c-0.51,0.132-1.028,0.235-1.55,0.308l1.288,8.433
			l-2.158-8.325c-0.619,0.078-1.243,0.115-1.867,0.108c-9.909-0.011-17.939-8.041-17.95-17.95c0-4.713-3.821-8.533-8.533-8.533
			c-4.713,0-8.533,3.82-8.533,8.533c-0.011,9.909-8.041,17.939-17.95,17.95c-0.624,0.006-1.248-0.03-1.867-0.108l-1.15,8.458
			l0.279-8.567c-0.522-0.073-1.04-0.176-1.55-0.308c-0.167-0.05-0.667-0.183-0.833-0.225l-1.046-0.341
			c-0.568-0.206-1.123-0.446-1.663-0.717c-0.768-0.364-1.506-0.788-2.208-1.267l-0.696-0.5c-1.098-0.816-2.097-1.755-2.979-2.8
			l-0.725-0.933c-0.321-0.417-0.621-0.875-0.942-1.375c-0.129-0.258-0.513-0.975-0.663-1.225c-0.125-0.308-0.592-1.417-0.746-1.708
			c-0.117-0.275-0.225-0.567-0.408-1.075c-0.053-0.298-0.121-0.593-0.204-0.883c-0.079-0.283-0.15-0.55-0.204-0.842
			c-0.636-3.582-3.477-6.364-7.071-6.925c-6.816-1.05-11.838-6.929-11.812-13.825c-0.01-3.075,1.011-6.065,2.9-8.492
			c1.42-1.834,2.032-4.168,1.695-6.463c-0.336-2.295-1.592-4.354-3.479-5.704c-4.386-3.13-6.802-8.336-6.361-13.706
			c0.441-5.37,3.674-10.112,8.511-12.485c2.108-1.04,3.695-2.904,4.384-5.152c0.689-2.248,0.421-4.68-0.742-6.723
			c-1.07-1.875-1.627-3.999-1.613-6.158c0.009-5.003,2.967-9.529,7.545-11.547l0.125-0.067c1.582-0.683,3.286-1.036,5.009-1.036
			c2.394-0.161,4.624-1.275,6.192-3.092c1.62-1.87,2.45-4.296,2.317-6.767c0-7.719,6.258-13.977,13.977-13.977
			c7.719,0,13.977,6.258,13.977,13.977c0,4.713,3.82,8.533,8.533,8.533s8.533-3.821,8.533-8.533
			c0.009-7.715,6.261-13.967,13.976-13.975c3.838,0.054,7.49,1.662,10.122,4.455c2.632,2.794,4.019,6.535,3.844,10.37
			c-0.126,2.345,0.718,4.639,2.335,6.343c1.616,1.704,3.863,2.668,6.211,2.665c1.698-0.001,3.379,0.341,4.942,1.007
			c0.065,0.029,0.118,0.073,0.183,0.1c4.569,2.023,7.519,6.546,7.529,11.543c0.014,2.159-0.543,4.283-1.613,6.158
			c-1.163,2.043-1.431,4.476-0.742,6.723c0.689,2.248,2.275,4.111,4.384,5.152c4.838,2.373,8.07,7.115,8.511,12.485
			c0.441,5.37-1.975,10.576-6.361,13.706c-1.886,1.35-3.142,3.409-3.479,5.704c-0.336,2.295,0.276,4.628,1.695,6.463
			c1.889,2.427,2.91,5.416,2.9,8.492c0.026,6.896-4.997,12.774-11.812,13.824c-3.594,0.561-6.435,3.343-7.071,6.925
			c-0.054,0.292-0.125,0.558-0.204,0.842c-0.083,0.292-0.254,0.792-0.308,1.092c-0.081,0.296-0.182,0.585-0.304,0.867
			c-0.05,0.117-0.396,1.025-0.442,1.15c-0.199,0.335-0.379,0.68-0.542,1.033l-0.458,0.775c-0.298,0.498-0.624,0.979-0.975,1.442
			l-0.613,0.8c-0.9,1.06-1.916,2.016-3.029,2.85l-0.671,0.483c-0.777,0.522-1.593,0.981-2.442,1.375
			c-0.445,0.221-0.901,0.418-1.367,0.592l-1.129,0.367L290.163,237.792z M102.4,196.267V128c0.005-4.711,3.822-8.529,8.533-8.533
			h72.47c-1.399,3.459-2.126,7.152-2.145,10.883c0,2.381,0.285,4.754,0.85,7.067c-6.567,5.566-10.647,13.518-11.337,22.098
			c-0.69,8.581,2.065,17.083,7.658,23.627c-2.911,6.869-3.257,14.555-0.977,21.658h-66.519
			C106.222,204.795,102.405,200.978,102.4,196.267z M333.571,183.142c5.593-6.544,8.349-15.046,7.658-23.627
			c-0.69-8.581-4.77-16.533-11.337-22.098c0.565-2.313,0.85-4.686,0.85-7.067c-0.018-3.731-0.747-7.425-2.146-10.883h72.471
			c4.711,0.005,8.529,3.822,8.533,8.533v68.267c-0.005,4.711-3.822,8.529-8.533,8.533h-66.519
			C336.828,197.697,336.481,190.011,333.571,183.142z M102.4,25.6c0.005-4.711,3.822-8.529,8.533-8.533h290.133
			c4.711,0.005,8.529,3.822,8.533,8.533v68.267c-0.005,4.711-3.822,8.529-8.533,8.533h-90.241c-0.631-0.222-1.23-0.511-1.88-0.691
			c-2.287-11.359-10.711-20.498-21.847-23.7c-11.136-3.202-23.128,0.066-31.099,8.475c-7.971-8.409-19.964-11.677-31.099-8.475
			c-11.136,3.202-19.56,12.341-21.847,23.7c-0.651,0.18-1.251,0.469-1.882,0.691h-90.239c-4.711-0.005-8.529-3.822-8.533-8.533V25.6
			z M102.4,298.667V230.4c0.005-4.711,3.822-8.529,8.533-8.533h80.194c1.746,1.064,3.593,1.952,5.514,2.65l0.208,0.517
			c0.267,0.727,0.571,1.439,0.912,2.133c0.163,0.383,0.337,0.758,0.542,1.133c0.28,0.59,0.594,1.164,0.942,1.717
			c0.142,0.25,0.275,0.483,0.333,0.575c0.578,0.963,1.207,1.895,1.883,2.792l1.296,1.65c1.721,2.039,3.672,3.873,5.812,5.467
			l1.396,1c1.351,0.909,2.766,1.72,4.233,2.425c1.038,0.515,2.104,0.974,3.191,1.375c0.625,0.233,1.258,0.433,1.896,0.633
			c0.419,0.141,0.844,0.26,1.275,0.358c1.21,0.335,2.44,0.591,3.683,0.767c0.517,0.083,1.046,0.158,1.104,0.15
			c1.382,0.18,2.774,0.266,4.167,0.258c10.173,0.002,19.842-4.428,26.483-12.133c6.642,7.705,16.311,12.135,26.483,12.133
			c1.215,0.016,2.429-0.054,3.633-0.208c0.558-0.042,1.117-0.117,1.679-0.208c1.059-0.141,2.107-0.353,3.138-0.633
			c0.575-0.125,1.2-0.3,1.787-0.483c0.629-0.2,1.263-0.4,1.971-0.658c0.986-0.367,1.952-0.784,2.896-1.25
			c1.662-0.792,3.259-1.714,4.775-2.758l1.062-0.758c2.273-1.708,4.335-3.68,6.142-5.875l0.905-1.158
			c0.661-0.87,1.275-1.774,1.842-2.708c0.088-0.133,0.279-0.458,0.458-0.775c0.341-0.546,0.65-1.11,0.925-1.692
			c0.204-0.375,0.379-0.75,0.542-1.133c0.289-0.574,0.545-1.164,0.767-1.766c0.121-0.292,0.242-0.592,0.35-0.883
			c1.922-0.698,3.77-1.586,5.516-2.65h80.196c4.711,0.005,8.529,3.822,8.533,8.533v68.267c-0.005,4.711-3.822,8.529-8.533,8.533
			H110.933C106.222,307.195,102.405,303.378,102.4,298.667z M136.533,494.933H17.067v-51.2h119.467V494.933z M315.733,494.933
			H196.267v-51.2h119.467V494.933z M494.933,494.933H375.467v-51.2h119.467V494.933z"/>
		<path d="M407.125,463.275c-0.83-0.753-1.783-1.359-2.817-1.792c-2.077-0.858-4.41-0.858-6.487,0
			c-1.033,0.433-1.984,1.039-2.813,1.792c-0.773,0.815-1.383,1.772-1.796,2.817c-0.906,2.066-0.906,4.417,0,6.483
			c0.78,2.141,2.467,3.828,4.608,4.608c2.067,0.911,4.421,0.911,6.487,0c1.034-0.433,1.987-1.039,2.817-1.792
			c2.444-2.441,3.154-6.125,1.792-9.3C408.504,465.047,407.896,464.091,407.125,463.275z"/>
		<path d="M121.941,65.792c0.829,0.753,1.78,1.359,2.813,1.792c3.176,1.362,6.862,0.652,9.305-1.792
			c0.751-0.832,1.357-1.784,1.792-2.817c0.437-1.026,0.669-2.127,0.683-3.242c0-4.713-3.821-8.533-8.533-8.533
			c-4.713,0-8.533,3.821-8.533,8.533c0.012,1.115,0.243,2.216,0.679,3.242C120.581,64.009,121.188,64.961,121.941,65.792z"/>
		<path d="M162.133,68.267c2.855,0.03,5.532-1.385,7.115-3.761c1.584-2.376,1.86-5.39,0.735-8.014
			c-0.433-1.034-1.039-1.986-1.791-2.817c-3.421-3.158-8.695-3.158-12.117,0c-0.755,0.829-1.363,1.782-1.796,2.817
			c-1.122,2.625-0.844,5.638,0.74,8.013C156.604,66.879,159.279,68.294,162.133,68.267z"/>
		<path d="M349.867,76.8c2.263,0.001,4.434-0.898,6.035-2.499s2.499-3.771,2.499-6.035V51.2c0-4.713-3.821-8.533-8.533-8.533
			c-4.713,0-8.533,3.821-8.533,8.533v17.067c-0.001,2.263,0.898,4.434,2.499,6.035S347.603,76.801,349.867,76.8z"/>
		<path d="M315.733,76.8c2.263,0.001,4.434-0.898,6.035-2.499s2.499-3.771,2.499-6.035V51.2c0-4.713-3.821-8.533-8.533-8.533
			c-4.713,0-8.533,3.821-8.533,8.533v17.067c-0.001,2.263,0.898,4.434,2.499,6.035C311.299,75.902,313.47,76.801,315.733,76.8z"/>
		<path d="M384,76.8c2.263,0.001,4.434-0.898,6.035-2.499c1.6-1.6,2.499-3.771,2.499-6.035V51.2c0-4.713-3.82-8.533-8.533-8.533
			s-8.533,3.821-8.533,8.533v17.067c-0.001,2.263,0.898,4.434,2.499,6.035S381.737,76.801,384,76.8z"/>
		<path d="M134.059,258.475c-3.421-3.158-8.695-3.158-12.117,0c-0.773,0.815-1.383,1.772-1.796,2.817
			c-1.357,3.176-0.646,6.858,1.795,9.301c0.829,0.753,1.78,1.359,2.813,1.792c2.625,1.125,5.64,0.848,8.016-0.735
			c2.376-1.584,3.792-4.26,3.764-7.115c0.029-1.119-0.205-2.229-0.683-3.242C135.417,260.258,134.811,259.305,134.059,258.475z"/>
		<path d="M168.192,258.475c-3.421-3.158-8.695-3.158-12.117,0c-0.773,0.815-1.383,1.772-1.796,2.817
			c-1.357,3.176-0.646,6.858,1.795,9.301c0.829,0.753,1.78,1.359,2.813,1.792c2.625,1.125,5.64,0.848,8.016-0.735
			c2.376-1.584,3.792-4.26,3.764-7.115c0.029-1.119-0.205-2.229-0.683-3.242C169.55,260.258,168.945,259.305,168.192,258.475z"/>
		<path d="M349.867,281.6c2.263,0.001,4.434-0.898,6.035-2.499c1.6-1.6,2.499-3.771,2.499-6.035V256
			c0-4.713-3.821-8.533-8.533-8.533c-4.713,0-8.533,3.821-8.533,8.533v17.067c-0.001,2.263,0.898,4.434,2.499,6.035
			C345.432,280.702,347.603,281.601,349.867,281.6z"/>
		<path d="M315.733,281.6c2.263,0.001,4.434-0.898,6.035-2.499c1.6-1.6,2.499-3.771,2.499-6.035V256
			c0-4.713-3.821-8.533-8.533-8.533c-4.713,0-8.533,3.821-8.533,8.533v17.067c-0.001,2.263,0.898,4.434,2.499,6.035
			C311.299,280.702,313.47,281.601,315.733,281.6z"/>
		<path d="M384,281.6c2.263,0.001,4.434-0.898,6.035-2.499c1.6-1.6,2.499-3.771,2.499-6.035V256c0-4.713-3.82-8.533-8.533-8.533
			s-8.533,3.821-8.533,8.533v17.067c-0.001,2.263,0.898,4.434,2.499,6.035C379.566,280.702,381.737,281.601,384,281.6z"/>
		<path d="M121.941,156.075c-0.773,0.815-1.383,1.772-1.796,2.817c-1.336,3.19-0.612,6.87,1.832,9.317
			c2.444,2.447,6.124,3.175,9.315,1.843c3.191-1.332,5.262-4.46,5.241-7.918c0.02-3.467-2.059-6.601-5.261-7.931
			C128.071,152.873,124.383,153.613,121.941,156.075z"/>
		<path d="M384,179.2c2.263,0.001,4.434-0.898,6.035-2.499c1.6-1.6,2.499-3.771,2.499-6.035V153.6c0-4.713-3.82-8.533-8.533-8.533
			s-8.533,3.82-8.533,8.533v17.067c-0.001,2.263,0.898,4.434,2.499,6.035C379.566,178.302,381.737,179.201,384,179.2z"/>
	</g>
</g>
<g>
</g>
<g>
</g>
<g>
</g>
<g>
</g>
<g>
</g>
<g>
</g>
<g>
</g>
<g>
</g>
<g>
</g>
<g>
</g>
<g>
</g>
<g>
</g>
<g>
</g>
<g>
</g>
<g>
</g>
</svg>
