<?xml version="1.0" encoding="iso-8859-1"?>
<!-- Generator: Adobe Illustrator 19.0.0, SVG Export Plug-In . SVG Version: 6.00 Build 0)  -->
<svg version="1.1" id="Capa_1" xmlns="http://www.w3.org/2000/svg" xmlns:xlink="http://www.w3.org/1999/xlink" x="0px" y="0px"
	 viewBox="0 0 512 512" style="enable-background:new 0 0 512 512;" xml:space="preserve">
<g>
	<g transform="translate(1 1)">
		<g>
			<path style="fill:#607D8B;" d="M24.6,7.533h460.8c9.426,0,17.067,7.641,17.067,17.067v298.667
				c0,9.426-7.641,17.067-17.067,17.067H24.6c-9.426,0-17.067-7.641-17.067-17.067V24.6C7.533,15.174,15.174,7.533,24.6,7.533z"/>
			<path style="fill:#CFD8DC;" d="M476.867,24.6v298.667c-0.069,9.134-7.259,16.625-16.383,17.067H24.6
				c-9.414-0.028-17.039-7.652-17.067-17.067V24.6C7.561,15.186,15.186,7.561,24.6,7.533h435.2
				C469.214,7.561,476.839,15.186,476.867,24.6z"/>
			<g>
				<rect x="58.733" y="212.333" style="fill:#F44335;" width="34.133" height="76.8"/>
				<rect x="434.2" y="289.133" style="fill:#F44335;" width="34.133" height="76.8"/>
				<polygon style="fill:#F44335;" points="383,238.531 451.267,272.067 436.76,298.179 434.2,296.728 374.467,269.933 				"/>
				<polygon style="fill:#F44335;" points="144.067,238.531 75.8,272.067 92.867,296.728 152.6,269.933 				"/>
			</g>
			<g>
				<path style="fill:#607D8B;" d="M169.667,203.8c-18.851,0-34.133,19.103-34.133,42.667s15.282,42.667,34.133,42.667H357.4
					c18.851,0,34.133-19.103,34.133-42.667S376.251,203.8,357.4,203.8H169.667z"/>
				<path style="fill:#607D8B;" d="M297.667,417.133l0,59.733c0.009,6.792-2.685,13.309-7.488,18.112
					c-4.803,4.803-11.319,7.497-18.112,7.488h-16.811c-14.134-0.011-25.589-11.466-25.6-25.6v-59.733H297.667z"/>
			</g>
		</g>
		<g>
			<path style="fill:none;stroke:#000000;stroke-width:2;stroke-linecap:round;stroke-linejoin:round;" d="M246.467,144.067
				l-8.538,8.533"/>
			<path style="fill:none;stroke:#000000;stroke-width:2;stroke-linecap:round;stroke-linejoin:round;" d="M280.596,152.6
				l-42.662,42.667"/>
		</g>
		<g>
			<circle style="fill:#607D8B;" cx="451.267" cy="289.133" r="25.6"/>
			<path style="fill:#C52828;" d="M357.4,203.8V383c-0.022,28.268-22.932,51.178-51.2,51.2h-85.333
				c-28.268-0.022-51.178-22.932-51.2-51.2V203.8c-0.051-46.902,34.592-86.613,81.067-92.928c4.234-0.658,8.515-0.972,12.8-0.939
				c24.899-0.014,48.783,9.871,66.39,27.477C347.529,155.017,357.414,178.901,357.4,203.8z"/>
			<path style="fill:#F44335;" d="M331.8,203.8V383c-0.022,28.268-22.932,51.178-51.2,51.2h-59.733
				c-28.268-0.022-51.178-22.932-51.2-51.2V203.8c-0.051-46.902,34.592-86.613,81.067-92.928
				C297.212,117.18,331.858,156.895,331.8,203.8z"/>
			<path style="fill:#00838F;" d="M323.267,169.667v51.2c-0.028,9.414-7.653,17.039-17.067,17.067h-85.333
				c-9.414-0.028-17.039-7.653-17.067-17.067v-51.2c-0.002-28.063,19.524-52.347,46.933-58.369c4.209-0.893,8.498-1.35,12.8-1.365
				c15.843-0.002,31.037,6.291,42.24,17.494C316.975,138.63,323.268,153.824,323.267,169.667z"/>
			<path style="fill:#00BCD4;" d="M297.667,169.667v51.2c-0.028,9.414-7.653,17.039-17.067,17.067h-59.733
				c-9.414-0.028-17.039-7.653-17.067-17.067v-51.2c-0.002-28.063,19.524-52.347,46.933-58.369
				C278.137,117.329,297.659,141.607,297.667,169.667z"/>
			<g>
				<circle style="fill:#607D8B;" cx="75.8" cy="289.133" r="25.6"/>
				<circle style="fill:#607D8B;" cx="75.8" cy="212.333" r="25.6"/>
				<circle style="fill:#607D8B;" cx="451.267" cy="365.933" r="25.6"/>
			</g>
		</g>
	</g>
	<g>
		<path d="M238.925,162.133c2.264,0.003,4.435-0.897,6.033-2.5l8.542-8.533c3.281-3.341,3.256-8.701-0.054-12.012
			c-3.311-3.311-8.671-3.335-12.012-0.054l-8.542,8.533c-2.44,2.44-3.169,6.11-1.849,9.298
			C232.363,160.054,235.474,162.133,238.925,162.133z"/>
		<path d="M232.9,202.3c1.6,1.601,3.77,2.5,6.033,2.5s4.433-0.899,6.033-2.5l42.658-42.667c2.178-2.151,3.037-5.304,2.251-8.262
			c-0.786-2.958-3.097-5.269-6.055-6.055s-6.111,0.073-8.262,2.251L232.9,190.234c-1.601,1.6-2.5,3.77-2.5,6.033
			S231.3,200.7,232.9,202.3z"/>
		<path d="M486.4,0H25.6C11.468,0.015,0.015,11.468,0,25.6v298.667c0.015,14.132,11.468,25.585,25.6,25.6h136.533V384
			c0.04,32.973,26.76,59.693,59.733,59.733h0.292v24.154c-0.389,0.925-0.389,1.967,0,2.892v7.088
			c0.019,18.844,15.29,34.115,34.133,34.133h16.775c18.844-0.019,34.115-15.29,34.133-34.133v-34.133
			c32.973-0.04,59.693-26.76,59.733-59.733v-34.133h59.733v17.067c0.036,2.578,0.467,5.135,1.277,7.582l-7.46,5.593
			c-6.836,5.148-10.864,13.201-10.883,21.758c-0.023,7.218,2.846,14.145,7.967,19.233l11.6,11.6
			c3.341,3.281,8.701,3.256,12.012-0.054c3.311-3.311,3.335-8.671,0.054-12.012l-11.6-11.6c-2.076-2.078-3.149-4.954-2.941-7.884
			c0.208-2.93,1.676-5.626,4.025-7.39l7.378-5.531c8.576,5.742,19.768,5.742,28.344,0l7.378,5.531
			c2.349,1.764,3.817,4.46,4.025,7.39c0.208,2.93-0.865,5.806-2.941,7.884l-11.6,11.6c-2.188,2.149-3.055,5.307-2.27,8.271
			c0.785,2.965,3.1,5.28,6.065,6.065c2.965,0.785,6.122-0.082,8.271-2.27l11.6-11.6c5.12-5.088,7.99-12.015,7.967-19.233
			c-0.019-8.557-4.048-16.611-10.883-21.758l-7.46-5.593c0.811-2.447,1.241-5.004,1.277-7.582v-17.067h8.533
			c14.132-0.015,25.585-11.468,25.6-25.6V25.6C511.985,11.468,500.532,0.015,486.4,0z M101.49,283.729
			c-1.078-4.194-3.205-8.044-6.182-11.189l33.099-18.397c0.467,4.437,1.436,8.806,2.888,13.025L101.49,283.729z M76.8,170.667
			c2.264,0.001,4.435-0.897,6.035-2.498c1.601-1.601,2.499-3.772,2.498-6.035v-3.26l9.142,4.569c4.445,2.23,7.421,6.6,7.867,11.552
			c0.446,4.953-1.701,9.784-5.675,12.773l-5.696,4.272c-8.575-5.74-19.766-5.74-28.342,0l-5.696-4.272
			c-3.608-2.723-5.731-6.98-5.733-11.5c-0.021-5.437,3.053-10.412,7.925-12.825l9.142-4.569v3.26
			c-0.001,2.264,0.897,4.435,2.498,6.035C72.365,169.769,74.536,170.668,76.8,170.667z M74.102,264.806
			c-1.99,0.201-3.948,0.638-5.835,1.3V237.36c5.496,2.097,11.571,2.097,17.067,0v21.203L74.102,264.806z M85.333,213.333
			c0,4.713-3.82,8.533-8.533,8.533c-4.713,0-8.533-3.821-8.533-8.533s3.821-8.533,8.533-8.533
			C81.512,204.803,85.33,208.622,85.333,213.333z M76.8,281.6c4.713,0,8.533,3.821,8.533,8.533c0,4.713-3.82,8.533-8.533,8.533
			c-4.713,0-8.533-3.821-8.533-8.533C68.27,285.422,72.088,281.603,76.8,281.6z M145.067,247.467
			c-0.76-13.033,5.827-25.397,17.067-32.037v64.075C150.894,272.864,144.307,260.499,145.067,247.467z M290.133,460.8H281.6
			c-4.713,0-8.533,3.821-8.533,8.533c0,4.713,3.82,8.533,8.533,8.533h8.533c-0.012,9.421-7.646,17.054-17.067,17.067h-16.775
			c-9.421-0.012-17.054-7.646-17.067-17.067h8.242c4.713,0,8.533-3.821,8.533-8.533c0-4.713-3.82-8.533-8.533-8.533h-8.242v-17.067
			h50.908V460.8z M349.867,384c-0.028,23.553-19.114,42.639-42.667,42.667h-85.333c-23.553-0.028-42.639-19.114-42.667-42.667V204.8
			c-0.004-20.286,7.257-39.903,20.467-55.298c-2.247,6.83-3.395,13.974-3.4,21.165v51.2c0.015,14.132,11.468,25.585,25.6,25.6H307.2
			c14.132-0.015,25.585-11.468,25.6-25.6v-51.2c-0.005-7.19-1.153-14.334-3.4-21.165c13.21,15.395,20.471,35.012,20.467,55.298V384z
			 M269.764,119.731c26.099,2.714,45.938,24.695,45.969,50.935v51.2c-0.003,4.712-3.822,8.53-8.533,8.533h-85.333
			c-4.712-0.003-8.53-3.822-8.533-8.533v-51.2c0.032-26.24,19.87-48.221,45.969-50.935c1.74-0.106,3.465-0.265,5.231-0.265
			C266.3,119.467,268.025,119.625,269.764,119.731z M384,247.467c0.76,13.033-5.827,25.397-17.067,32.037v-64.075
			C378.173,222.07,384.76,234.434,384,247.467z M433.759,272.541c-2.981,3.148-5.111,7.004-6.188,11.204l-29.801-16.574
			c1.453-4.219,2.422-8.589,2.89-13.027L433.759,272.541z M443.733,314.16c5.496,2.097,11.571,2.097,17.067,0v28.746
			c-5.496-2.097-11.571-2.097-17.067,0V314.16z M452.267,298.667c-4.713,0-8.533-3.821-8.533-8.533c0-4.713,3.82-8.533,8.533-8.533
			s8.533,3.821,8.533,8.533C460.797,294.845,456.978,298.664,452.267,298.667z M366.933,332.8v-35.166
			c9.113-2.419,17.131-7.868,22.735-15.449l36.998,20.56V332.8H366.933z M443.733,366.933c0-4.713,3.82-8.533,8.533-8.533
			s8.533,3.82,8.533,8.533s-3.82,8.533-8.533,8.533C447.555,375.464,443.737,371.645,443.733,366.933z M494.933,324.267
			c-0.003,4.712-3.822,8.53-8.533,8.533h-8.533v-42.667c-0.041-13.054-9.918-23.977-22.902-25.327l-55.448-30.819
			c-3.139-17.508-15.902-31.739-32.967-36.758c-3.909-53.456-48.418-94.829-102.017-94.829s-98.108,41.374-102.017,94.829
			c-17.065,5.019-29.828,19.25-32.967,36.758l-27.15,15.09v-35.745c-0.036-2.578-0.467-5.136-1.277-7.583l5.777-4.333
			c8.709-6.535,13.416-17.112,12.44-27.956c-0.976-10.844-7.495-20.411-17.232-25.286l-16.775-8.384v-28.857
			c0-4.713-3.82-8.533-8.533-8.533c-4.713,0-8.533,3.821-8.533,8.533v28.857l-16.775,8.384
			c-9.736,4.875-16.256,14.441-17.232,25.286c-0.976,10.844,3.731,21.421,12.44,27.956l5.777,4.333
			c-0.811,2.448-1.241,5.005-1.277,7.583v76.8c-0.038,10.994,6.971,20.776,17.394,24.274c10.423,3.498,21.914-0.074,28.517-8.865
			c0.306-0.102,0.606-0.222,0.898-0.359l41.39-22.998c5.605,7.581,13.623,13.03,22.735,15.449V332.8H25.6
			c-4.712-0.003-8.53-3.822-8.533-8.533V25.6c0.003-4.712,3.822-8.53,8.533-8.533h460.8c4.712,0.003,8.53,3.822,8.533,8.533V324.267
			z"/>
		<path d="M51.2,34.133c-2.264-0.001-4.435,0.897-6.035,2.498s-2.499,3.772-2.498,6.035V76.8c0,4.713,3.821,8.533,8.533,8.533
			s8.533-3.821,8.533-8.533V42.667c0.001-2.264-0.897-4.435-2.498-6.035C55.635,35.031,53.464,34.132,51.2,34.133z"/>
		<path d="M170.667,34.133c-2.264-0.001-4.435,0.897-6.035,2.498s-2.499,3.772-2.498,6.035V76.8c0,4.713,3.821,8.533,8.533,8.533
			c4.713,0,8.533-3.821,8.533-8.533V42.667c0.001-2.264-0.897-4.435-2.498-6.035S172.93,34.132,170.667,34.133z"/>
		<path d="M298.667,34.133c-2.264-0.001-4.435,0.897-6.035,2.498c-1.601,1.601-2.499,3.772-2.498,6.035V76.8
			c0,4.713,3.82,8.533,8.533,8.533s8.533-3.821,8.533-8.533V42.667c0.001-2.264-0.897-4.435-2.498-6.035
			C303.101,35.031,300.93,34.132,298.667,34.133z"/>
		<path d="M134.033,36.634c-1.6-1.601-3.77-2.5-6.033-2.5c-2.263,0-4.433,0.899-6.033,2.5l-11.033,11.033L99.9,36.634
			c-3.341-3.281-8.701-3.256-12.012,0.054s-3.335,8.671-0.054,12.012l11.033,11.034L87.834,70.767
			c-2.188,2.149-3.055,5.307-2.27,8.271c0.785,2.965,3.1,5.28,6.065,6.065c2.965,0.785,6.122-0.082,8.271-2.27L110.933,71.8
			l11.034,11.034c3.338,3.296,8.711,3.279,12.029-0.038s3.334-8.691,0.038-12.029L123,59.733L134.034,48.7
			c1.6-1.6,2.5-3.77,2.5-6.033C136.533,40.404,135.634,38.233,134.033,36.634z"/>
		<path d="M256,34.133h-42.667c-4.713,0-8.533,3.821-8.533,8.533s3.82,8.533,8.533,8.533H256c4.713,0,8.533-3.821,8.533-8.533
			S260.713,34.133,256,34.133z"/>
		<path d="M256,68.267h-42.667c-4.713,0-8.533,3.821-8.533,8.533c0,4.713,3.82,8.533,8.533,8.533H256
			c4.713,0,8.533-3.82,8.533-8.533C264.533,72.087,260.713,68.267,256,68.267z"/>
	</g>
</g>
<g>
</g>
<g>
</g>
<g>
</g>
<g>
</g>
<g>
</g>
<g>
</g>
<g>
</g>
<g>
</g>
<g>
</g>
<g>
</g>
<g>
</g>
<g>
</g>
<g>
</g>
<g>
</g>
<g>
</g>
</svg>
