<?xml version="1.0" encoding="utf-8"?>
<!-- Generator: Adobe Illustrator 22.0.1, SVG Export Plug-In . SVG Version: 6.00 Build 0)  -->
<svg version="1.1" id="Layer_1" xmlns="http://www.w3.org/2000/svg" xmlns:xlink="http://www.w3.org/1999/xlink" x="0px" y="0px"
	 viewBox="0 0 546.9 170.7" style="enable-background:new 0 0 546.9 170.7;" xml:space="preserve">
<path d="M357.4,0.6c-13.3,1.1-31.8,3.7-45,6.3c-25.9,5.1-42.3,10.2-98.5,30.8C157,58.5,131.5,64.6,96.8,65.6
	c-30.5,0.9-49.5-2-65.9-10c-7.1-3.4-10.2-5.8-18.9-14.4c-12.7-12.6-15.4-13-7.8-1.1c13.7,21.6,30.7,33.4,56.2,38.8
	c13,2.7,43.7,3.8,62.1,2.1c30.3-2.8,50.3-7.6,92.4-22.1C294.5,31.4,317.6,25,355.4,20.3c17.2-2.2,53.6-2.5,67.5-0.5
	c38,5.2,65.8,17.4,87.7,38.4c11.8,11.3,20.9,26.2,25.9,41.9c1.2,4,2.3,5.8,3.4,5.8s2.1,1.4,2.9,4c1.3,4.5,4.1,5.5,4.1,1.5
	c0-3.7-5.3-17.5-10.5-27.3C511.1,36.5,471.7,9.8,414.8,1.5C405,0,370-0.5,357.4,0.6z M189.4,57.9c-2.7,1-5.7,1.8-6.5,1.8
	c-0.8,0,0.8-0.8,3.5-1.8c2.8-1,5.7-1.8,6.5-1.8C193.7,56.1,192.2,56.9,189.4,57.9z M175.9,62c-4.3,1.8-30,7.8-42.5,10
	c-15,2.6-46.4,3.7-61.5,2c-9.9-1.1-28.5-4.9-27.8-5.7c0.2-0.2,4.6,0.6,9.8,1.7c12.5,2.6,44.1,3.6,62.9,2c16.7-1.5,34.2-4.4,48-8
	C175.9,61.1,180.2,60.3,175.9,62z"/>
<path d="M363.9,49.6c-26.1,1.9-57.5,9.5-109,26.3c-85.8,28-100.8,31.5-136.5,31.5c-16.8,0-22.7-0.4-29.5-1.9
	c-10.1-2.2-23.3-6.7-31.2-10.7c-4.9-2.5-5.8-2.6-6.8-1.3c-1.6,1.8-2.2,1.3,8,6.7c33.3,17.9,76.4,20.1,128.6,6.7
	c6.4-1.7,11.9-2.9,12.1-2.7c0.5,0.6-17.9,5.4-31.2,8.1c-19.2,3.9-31.1,4.9-50,4.3c-21.9-0.8-33.8-3.4-51.8-11.4
	c-5.4-2.4-8.2-3.2-8.9-2.5c-1.6,1.6-0.2,3,6.2,6.2c24.4,12.3,52.3,17.5,80.9,15.1c25.5-2.1,46.3-6.8,85.1-19.2
	c67-21.4,101.9-31.1,129.3-36.1c16.7-3.1,50-3.3,62.2-0.4c18.8,4.4,33.4,10.8,44.2,19.6c8.3,6.7,10.7,12.7,10.1,25
	c-0.5,10.2-3.5,16.8-10.9,23.4c-14.2,12.8-44.8,19.4-76.7,16.8c-24.3-2.1-42.3-8.1-56.1-18.9c-6.3-5-16.3-16.5-20.4-23.5
	c-2.4-4.1-2.5-4.2-4.7-2.8c-1.2,0.7-1,1.8,1.5,7.2c6.3,13.3,17.5,28.2,26.9,35.5c19,14.8,43.2,21,78.4,20
	c14.8-0.4,19.3-0.9,27.7-3.1c20.9-5.5,35.2-15.1,41.6-28.2c4-8.1,5-19.6,2.5-29.4c-4.4-17.1-20.3-36.5-37.1-45.1
	C424.9,52.6,395,47.3,363.9,49.6z M410.3,58.5c8.7,1.5,25.2,6.2,24.4,6.9c-0.2,0.2-3.1-0.4-6.3-1.4c-15.6-4.9-38.7-6.9-57.9-5.2
	c-14.3,1.3-18.3,0.8-5.4-0.7C378.6,56.6,400.4,56.7,410.3,58.5z M355.2,60.6c-0.7,0.2-1.9,0.2-2.5,0c-0.7-0.3-0.2-0.5,1.2-0.5
	S355.8,60.3,355.2,60.6z M242.9,91c-6.3,2.1-11.9,3.9-12.5,3.8c-1.4-0.1,20.7-7.7,22.5-7.7C253.7,87.1,249.2,88.8,242.9,91z
	 M220.9,98c-4.6,1.6-8.9,2.9-9.5,2.8c-1.4-0.1,14.7-5.7,16.5-5.7C228.7,95.1,225.6,96.4,220.9,98z M206.9,102.4
	c-1.9,0.7-4.2,1.3-5,1.3c-0.8,0,0.1-0.6,2-1.3c1.9-0.7,4.2-1.3,5-1.3C209.7,101.1,208.8,101.7,206.9,102.4z M480.5,130.3
	c-1.8,5.9-6.6,12.9-12,16.9c-9.6,7.3-29.9,13.8-47.3,15.1l-7.8,0.5l9-1.4c32.9-5.3,54.6-20.4,58.2-40.6l0.8-4.4l0.3,4.3
	C481.9,123,481.3,127.4,480.5,130.3z"/>
</svg>
