<?xml version="1.0" encoding="utf-8"?>
<!-- Generator: Adobe Illustrator 22.0.1, SVG Export Plug-In . SVG Version: 6.00 Build 0)  -->
<svg version="1.1" id="Layer_1" xmlns="http://www.w3.org/2000/svg" xmlns:xlink="http://www.w3.org/1999/xlink" x="0px" y="0px"
	 viewBox="0 0 546.6 170.5" style="enable-background:new 0 0 546.6 170.5;" xml:space="preserve">
<path d="M125.6,1.2C73.9,9.4,34.7,33.7,12.8,71.1C5.3,83.9-1.7,102.7,0.3,104.7c1.7,1.7,2.9,0.4,4.8-5.3C7.7,91.3,15,76.2,20,68.8
	c20.3-30.5,52.8-50,94.6-56.7c13.1-2.1,15.4-1.8,4.2,0.6C72.4,22.4,35.2,48.5,16.3,84.4c-5.9,11.3-11.4,26.9-9.9,28.4
	c1.6,1.6,2.8,0.3,5.2-6.4c14.9-41.5,47.3-70.1,92.2-81.7c19.5-5,31.8-6.5,56.3-6.5c23.3,0,35.3,1,58.1,4.9
	c27.4,4.7,45.6,10.2,127.3,37.9c43.2,14.8,66,19.3,101.6,20.3c32.5,0.9,50.7-1.8,68-10.2c10.7-5.2,19-11.7,26.2-20.5
	c5.1-6.2,6.6-10,4.1-10c-0.6,0-4.2,3.4-8,7.4c-16.6,18-35.3,25.1-69.3,26.3c-9.3,0.3-22.4,0.2-29-0.3l-12-0.9l24.5-0.6
	c19.6-0.5,26.6-1.1,35-2.8c23.2-4.9,41.1-16.2,52.9-33.4c2.7-4,3-4.8,1.6-5.3c-1.1-0.5-4,1.9-9.5,7.8
	c-12.8,13.7-25.2,20.4-45.6,24.5c-14,2.8-54.4,2.5-71.9-0.5c-26-4.5-44.6-10.1-98.5-29.7C260.3,13,237.5,6.8,201.4,2
	C183.7-0.3,138.2-0.8,125.6,1.2z M424.9,72.3c-0.7,0.2-2.1,0.2-3,0c-1-0.3-0.4-0.5,1.2-0.5C424.8,71.8,425.5,72,424.9,72.3z"/>
<path d="M143.6,49.6C100.4,55,70.2,72.9,62.5,97.7c-2.5,8.1-2.6,21.1,0,28.3c2.7,7.7,13.3,22.9,19.2,27.6
	c9.9,7.8,25.2,13.6,42.7,16.1c11,1.5,43.1,0.6,52.7-1.6c30-6.7,49.3-20.2,60.5-42.3c3-5.9,3.4-9.2,1.1-9.2c-0.6,0-3.2,3.3-5.9,7.2
	c-6.2,9.2-18.1,20.5-26.4,25.1c-12.9,7.3-30.2,12-47.8,13.1l-8.5,0.5l9.5-1.3c15.3-2.3,25.8-5.3,37.5-11.1
	c16.7-8.1,29-20.3,36.2-36.2c2.1-4.5,2.3-5.7,1.2-6.4c-2.1-1.3-2.3-1.2-4.3,2.3c-1,1.8-4.3,6.5-7.3,10.5c-14.4,19-36.3,29.5-68,32.4
	c-28.7,2.6-57.5-2.3-72.5-12.4c-7.6-5.1-10.5-9.1-11.3-16c-3-24,17.9-45.2,53.7-54.6c13.5-3.5,22.9-4.4,40.6-3.8
	c32.1,1,59.4,7.5,144.2,34.4c51.4,16.3,71.1,21,97.5,23.4c28.2,2.5,56.4-2.5,79.8-14.2c7.2-3.7,9.9-6.1,8.3-7.6
	c-0.3-0.3-4.1,1-8.3,2.9c-18.8,8.6-30.1,10.9-56.3,11.3c-19.5,0.3-20.4,0.3-9-0.6c23.4-1.6,42-6.4,59.5-15.1c10-5,10.8-5.7,9.5-7.3
	c-0.9-1.1-2.8-0.5-9.3,2.5c-17.5,8.2-36,12-57.9,12c-31.4,0-54.5-5.2-122.8-27.5C242.9,61.3,218.9,54.8,193.1,51
	C180.4,49.2,153.3,48.4,143.6,49.6z M156.1,58.1c-24.3,2.5-40.8,6.9-56.3,15c-18.8,9.7-31,24.4-32.9,39.6c-0.7,5.4-0.7,5.4-1.3,1.7
	c-1-5.6,0.7-15.2,3.6-21c6.6-13,22.4-24.3,43.3-30.9c13.7-4.3,23.9-5.7,40.1-5.7h15.5L156.1,58.1z"/>
</svg>
