<?xml version="1.0" encoding="iso-8859-1"?>
<!-- Generator: Adobe Illustrator 19.0.0, SVG Export Plug-In . SVG Version: 6.00 Build 0)  -->
<svg version="1.1" id="Capa_1" xmlns="http://www.w3.org/2000/svg" xmlns:xlink="http://www.w3.org/1999/xlink" x="0px" y="0px"
	 viewBox="0 0 512 512" style="enable-background:new 0 0 512 512;" xml:space="preserve">
<g>
	<g transform="translate(1 1)">
		<path style="fill:#00838F;" d="M502.467,33.133v358.4H34.84c-5.497-11.04-10.23-22.445-14.165-34.133
			c-4.569-13.543-8.135-27.405-10.667-41.472c-0.346-1.721-0.602-3.458-0.768-5.205c-1.091-7.402-1.633-14.875-1.621-22.357H7.533
			V33.133c-0.009-6.792,2.685-13.309,7.488-18.112s11.32-7.497,18.112-7.488h443.733c6.792-0.009,13.309,2.685,18.112,7.488
			S502.476,26.341,502.467,33.133z"/>
		<path style="fill:#00BCD4;" d="M476.867,33.133v358.4H34.84c-5.497-11.04-10.23-22.445-14.165-34.133
			c-4.569-13.543-8.135-27.405-10.667-41.472c-0.346-1.721-0.602-3.458-0.768-5.205c-1.091-7.402-1.633-14.875-1.621-22.357H7.533
			V33.133c-0.009-6.792,2.685-13.309,7.488-18.112s11.32-7.497,18.112-7.488h418.133c6.792-0.009,13.309,2.685,18.112,7.488
			C474.182,19.824,476.876,26.341,476.867,33.133z"/>
		<g>
			<rect x="220.867" y="400.067" style="fill:#607D8B;" width="85.333" height="93.867"/>
			<path style="fill:#607D8B;" d="M357.4,502.467H169.667c0.016-9.051,3.604-17.729,9.984-24.149
				c0.499-0.528,1.042-1.013,1.621-1.451c6.223-5.488,14.231-8.522,22.528-8.533h119.467c9.053-0.003,17.737,3.593,24.139,9.995
				C353.807,484.73,357.403,493.413,357.4,502.467z"/>
		</g>
		<path style="fill:#CFD8DC;" d="M169.667,502.467l1.109-8.533h-1.109c0.016-9.051,3.604-17.729,9.984-24.149
			c0.499-0.528,1.042-1.013,1.621-1.451h116.396c2.882-0.026,5.754,0.347,8.533,1.109c12.029,3.069,21.422,12.462,24.491,24.491
			c0.762,2.78,1.135,5.651,1.111,8.533H169.667z"/>
		<path style="fill:#607D8B;" d="M502.467,357.4l0,42.667c0.009,6.792-2.685,13.309-7.488,18.112
			c-4.803,4.803-11.32,7.497-18.112,7.488H49.944c0.161-1.159,0.247-2.328,0.256-3.499v-0.256
			c-3.328-8.021-9.046-17.664-15.36-30.379c-5.497-11.04-10.23-22.445-14.165-34.133H502.467z"/>
		<path style="fill:#CFD8DC;" d="M476.867,357.4l0,42.667c0.009,6.792-2.685,13.309-7.488,18.112
			c-4.803,4.803-11.32,7.497-18.112,7.488H49.944c0.161-1.159,0.247-2.328,0.256-3.499v-0.256
			c-3.328-8.021-9.046-17.664-15.36-30.379c-5.497-11.04-10.23-22.445-14.165-34.133H476.867z"/>
		<path style="fill:#3F51B5;" d="M246.467,144.067c0.038,11.724-1.984,23.364-5.973,34.389
			c-16.911-13.793-36.581-23.802-57.685-29.355c-4.58-1.22-9.224-2.189-13.91-2.901c-1.548-0.367-3.115-0.652-4.693-0.853
			c-4.128-0.595-8.289-0.937-12.459-1.024c-2.56-0.085-5.12-0.171-7.68-0.171v-0.085l100.437-20.053
			C245.806,130.618,246.464,137.334,246.467,144.067z"/>
		<path style="fill:#009688;" d="M244.504,124.013l-100.437,20.053l70.827-73.984C230.051,84.605,240.387,103.429,244.504,124.013z"
			/>
		<path style="fill:#E91E63;" d="M214.894,70.083l-70.827,73.984v-102.4C170.464,41.615,195.852,51.801,214.894,70.083z"/>
		<path style="fill:#FFEB3A;" d="M144.067,41.667v102.485c-21.406,0.162-42.541,4.813-62.037,13.653
			c-3.327,1.536-6.656,3.157-9.898,4.864c-2.304,1.28-4.608,2.56-6.741,3.925c-6.22,3.914-11.974,8.524-17.152,13.739
			c-11.844-31.474-7.504-66.754,11.614-94.419S110.438,41.716,144.067,41.667z"/>
		<path style="fill:#009688;" d="M365.933,84.333c-0.009,23.561-19.106,42.658-42.667,42.667c-3.952-0.018-7.883-0.564-11.691-1.621
			l11.691-41.045l38.998-17.323C364.703,72.459,365.954,78.364,365.933,84.333z"/>
		<path style="fill:#FFEB3A;" d="M323.267,41.667v42.667l-11.691,41.045c-20.47-5.834-33.51-25.861-30.566-46.941
			S301.982,41.67,323.267,41.667z"/>
		<path style="fill:#E91E63;" d="M362.265,67.011l-38.998,17.323V41.667C340.132,41.665,355.417,51.598,362.265,67.011z"/>
		<path style="fill:#FFEB3A;" d="M468.333,186.733v59.733l-42.837,24.405c-1.41,0.783-2.996,1.194-4.608,1.195h-39.765
			c-1.781-0.007-3.524-0.509-5.035-1.451l-20.308-12.885c-2.733-1.696-6.139-1.888-9.046-0.512l-29.44,13.909
			c-1.246,0.62-2.619,0.941-4.011,0.939h-23.467c-0.499-6.946-1.642-13.831-3.415-20.565c-2.049-8.634-4.965-17.04-8.704-25.088
			l51.2-20.821c2.832-1.124,6.03-0.839,8.619,0.768l45.313,28.672c2.78,1.792,6.351,1.792,9.131,0L468.333,186.733z"/>
		<path style="fill:#E91E63;" d="M468.333,246.467V299.8l-94.037,22.272c-3.037,0.772-6.257-0.065-8.533-2.219l-18.176-17.237
			c-3.098-2.892-7.75-3.347-11.349-1.109l-16.043,10.24c-2.945,1.802-6.636,1.868-9.643,0.171l-23.637-13.397
			c0.427-1.877,0.939-3.84,1.365-5.803c0.75-3.546,1.264-7.138,1.536-10.752c0.255-3.295,0.255-6.604,0-9.899h23.467
			c1.392,0.003,2.765-0.319,4.011-0.939l29.44-13.909c2.907-1.376,6.313-1.184,9.046,0.512l20.308,12.885
			c1.511,0.942,3.255,1.444,5.035,1.451h39.765c1.612-0.001,3.198-0.412,4.608-1.195L468.333,246.467z"/>
		<path style="fill:#009688;" d="M468.333,299.8v57.6H293.913c-6.307-8.524-10.251-18.562-11.435-29.099
			c-0.148-6.218,0.424-12.431,1.706-18.517c0.427-2.048,0.854-3.925,1.367-5.888c0.426-1.792,0.852-3.584,1.365-5.376l23.637,13.397
			c3.007,1.697,6.698,1.632,9.643-0.171l16.043-10.24c3.599-2.238,8.252-1.783,11.349,1.109l18.176,17.237
			c2.276,2.153,5.497,2.991,8.533,2.219L468.333,299.8z"/>
		<path style="fill:#37474F;" d="M294.935,390.083c-2.096,0.077-4.155,0.57-6.059,1.451c-3.446,1.517-5.799,4.784-6.144,8.533
			c-0.179,0.784-0.265,1.586-0.256,2.389c0.515,7.771-0.001,15.576-1.535,23.211c-0.062,0.329-0.177,0.647-0.341,0.939
			c-0.879,2.568-2.374,4.883-4.352,6.741c-6.229,6.144-12.373,0-12.373,12.288c0,8.107,2.645,16.299-0.854,22.699
			c-2.688,4.104-6.837,7.033-11.604,8.192c-8.397,1.678-17.045,1.65-25.43-0.085c-1.706-0.171-3.413-0.427-5.12-0.768
			c-8.681-1.548-17.259-3.628-25.685-6.229c-1.109-0.256-2.133-0.597-3.243-0.939h-0.17c-0.171-0.085-0.341-0.085-0.512-0.171
			c-2.304-0.683-4.608-1.536-6.827-2.389l-0.256,0.683c-0.341,0.512-0.768,1.109-1.194,1.707c-0.87,1.35-1.667,2.746-2.389,4.181
			c-1.56,3.099-2.928,6.29-4.096,9.557c-2.565,6.512-4.035,13.403-4.353,20.395H16.067c8.192-5.803,31.317-55.723,33.877-76.8
			c0.161-1.159,0.247-2.328,0.256-3.499v-0.256c-3.328-8.021-9.046-17.664-15.36-30.379c-5.497-11.04-10.23-22.445-14.165-34.133
			c-4.569-13.543-8.135-27.405-10.667-41.472c-0.346-1.721-0.602-3.458-0.768-5.205c-1.091-7.402-1.633-14.875-1.621-22.357
			c0.009-10.369,1.009-20.712,2.987-30.891c0.085-0.597,0.256-1.195,0.341-1.792c1.024-5.12,2.303-10.154,3.755-15.189
			c0.937-3.072,1.877-6.144,2.985-9.131c8.305-24.074,25.323-44.167,47.702-56.32c2.133-1.365,4.437-2.645,6.741-3.925
			c3.242-1.707,6.571-3.328,9.898-4.864c16.021-7.243,33.165-11.688,50.687-13.141c6.329-0.54,12.687-0.654,19.031-0.341
			c4.17,0.087,8.331,0.429,12.459,1.024c1.578,0.201,3.145,0.486,4.693,0.853c4.686,0.713,9.33,1.681,13.91,2.901
			c30.805,8.363,57.515,16.47,76.544,39.765c4.755,5.71,9.009,11.82,12.714,18.261c2.063,3.513,3.942,7.13,5.631,10.837
			c3.739,8.048,6.655,16.454,8.704,25.088c1.772,6.735,2.916,13.619,3.415,20.565c0.255,3.295,0.255,6.604,0,9.899
			c-0.273,3.614-0.786,7.206-1.537,10.752c-0.427,1.963-0.939,3.925-1.365,5.803c-0.513,1.792-0.939,3.584-1.365,5.376
			c-0.512,1.963-0.94,3.84-1.367,5.888c-1.282,6.086-1.854,12.3-1.706,18.517c1.184,10.537,5.128,20.575,11.435,29.099
			C304.237,373.528,314.989,386.072,294.935,390.083z"/>
		<path style="fill:#607D8B;" d="M269.335,390.083c-2.096,0.077-4.155,0.57-6.059,1.451c-3.446,1.517-5.799,4.784-6.144,8.533
			c-0.179,0.784-0.265,1.586-0.256,2.389c0.515,7.771-0.001,15.576-1.535,23.211c-0.062,0.329-0.177,0.647-0.341,0.939
			c-0.879,2.568-2.374,4.883-4.352,6.741c-6.229,6.144-12.373,0-12.373,12.288c0,8.107,2.645,16.299-0.854,22.699
			c-2.644,4.056-6.732,6.954-11.435,8.107c-0.084,0.085-0.084,0.085-0.17,0.085c-10.134,1.818-20.533,1.528-30.55-0.853
			c-4.693-0.853-9.643-1.877-14.677-3.157c-3.67-0.939-7.339-1.963-11.008-3.072c-1.109-0.256-2.133-0.597-3.243-0.939h-0.17
			c-0.171-0.085-0.341-0.085-0.512-0.171c-2.304-0.683-4.608-1.536-6.827-2.389l-0.256,0.683c-0.341,0.512-0.768,1.109-1.194,1.707
			c-2.643,4.337-4.817,8.942-6.485,13.739c-2.565,6.512-4.035,13.403-4.353,20.395H16.067c8.192-5.803,31.317-55.723,33.877-76.8
			c0.161-1.159,0.247-2.328,0.256-3.499v-0.256c-3.328-8.021-9.046-17.664-15.36-30.379c-5.497-11.04-10.23-22.445-14.165-34.133
			c-4.569-13.543-8.135-27.405-10.667-41.472c-0.346-1.721-0.602-3.458-0.768-5.205c-2.578-17.698-2.116-35.706,1.365-53.248
			c0.085-0.597,0.256-1.195,0.341-1.792c1.024-5.12,2.303-10.154,3.755-15.189c0.937-3.072,1.877-6.144,2.985-9.131
			c0.683-1.877,1.365-3.669,2.133-5.461c8.912-21.674,24.999-39.629,45.569-50.859c2.133-1.365,4.437-2.645,6.741-3.925
			c3.242-1.707,6.571-3.328,9.898-4.864c16.021-7.243,33.165-11.688,50.687-13.141c1.964,0.171,3.926,0.427,5.889,0.683
			c1.578,0.201,3.145,0.486,4.693,0.853c4.686,0.713,9.33,1.681,13.91,2.901c30.805,8.363,57.515,16.47,76.544,39.765
			c3.174,3.796,6.11,7.786,8.789,11.947c1.365,2.048,2.645,4.181,3.925,6.315c2.063,3.513,3.942,7.13,5.631,10.837
			c3.739,8.048,6.655,16.454,8.704,25.088c1.773,6.735,2.916,13.619,3.415,20.565c0.255,3.295,0.255,6.604,0,9.899
			c-0.273,3.614-0.786,7.206-1.537,10.752c-0.427,1.963-0.939,3.925-1.365,5.803c-0.513,1.792-0.939,3.584-1.365,5.376
			c-0.513,1.963-0.94,3.84-1.367,5.888c-1.282,6.086-1.855,12.3-1.707,18.517c1.184,10.537,5.129,20.575,11.436,29.099
			C278.637,373.528,289.389,386.072,269.335,390.083z"/>
		<path style="fill:#2E7D32;" d="M259.352,197.315l-0.513,0.427c-5.103,4.287-10.554,8.14-16.298,11.52
			c-2.68-4.16-5.615-8.15-8.789-11.947c-19.029-23.296-45.739-31.403-76.544-39.765c-4.58-1.22-9.224-2.189-13.91-2.901
			c-1.548-0.367-3.114-0.652-4.693-0.853c-1.963-0.256-3.925-0.512-5.889-0.683c-17.522,1.454-34.666,5.898-50.687,13.141
			c-3.327,1.536-6.656,3.157-9.898,4.864c-2.304,1.28-4.608,2.56-6.741,3.925c-20.569,11.23-36.657,29.184-45.569,50.859
			c6.137-17.031,15.823-32.563,28.416-45.568c5.178-5.215,10.932-9.824,17.152-13.739c2.133-1.365,4.437-2.646,6.741-3.925
			c3.242-1.707,6.571-3.328,9.898-4.864c19.497-8.84,40.631-13.492,62.038-13.653c2.56,0,5.12,0.085,7.68,0.171
			c4.17,0.087,8.331,0.429,12.459,1.024c1.578,0.202,3.145,0.487,4.693,0.853c4.686,0.713,9.33,1.681,13.91,2.901
			c21.104,5.552,40.774,15.562,57.685,29.355C247.403,184.086,253.722,190.405,259.352,197.315z"/>
		<path style="fill:#4CAF50;" d="M242.541,209.261c-3.86,2.481-7.879,4.705-12.032,6.656c-5.298,2.577-10.773,4.773-16.384,6.571
			c-13.752,4.608-28.163,6.942-42.667,6.912h-40.789c-5.842,0.082-11.522,1.926-16.298,5.291c-1.506,1.025-2.907,2.197-4.181,3.499
			c-5.639,5.562-8.806,13.157-8.79,21.077c-0.018,16.487-13.379,29.848-29.867,29.867H41.667
			c-14.07,0.333-26.692,8.737-32.427,21.589c-2.578-17.698-2.116-35.706,1.365-53.248c0.085-0.597,0.256-1.195,0.341-1.792
			c1.024-5.12,2.303-10.154,3.755-15.189c0.937-3.072,1.877-6.144,2.985-9.131c0.683-1.877,1.365-3.669,2.133-5.461
			c8.912-21.674,24.999-39.629,45.569-50.859c2.133-1.365,4.437-2.645,6.741-3.925c3.242-1.707,6.571-3.328,9.898-4.864
			c16.021-7.243,33.165-11.688,50.687-13.141c1.964,0.171,3.926,0.427,5.889,0.683c1.578,0.201,3.145,0.486,4.693,0.853
			c4.686,0.713,9.33,1.681,13.91,2.901c30.805,8.363,57.515,16.47,76.544,39.765C236.926,201.111,239.862,205.101,242.541,209.261z"
			/>
	</g>
	<g>
		<path d="M134.808,391.7c-1.361-1.809-3.386-3.002-5.629-3.315c-2.242-0.313-4.517,0.28-6.321,1.648
			c-2.587,2.467-6.404,3.134-9.675,1.692c-4.176-2.482-6.714-7.001-6.658-11.858c-0.609-9.067-3.071-17.913-7.233-25.992
			c-5.733-13.175-7.55-19.125-2.408-24.95c9.525-10.75,25.242,0.617,26,1.183c3.77,2.8,9.094,2.029,11.915-1.725
			c2.821-3.754,2.081-9.082-1.657-11.925c-9.967-7.517-33.033-16.942-49.05,1.167c-12.85,14.55-5.975,30.358-0.45,43.058
			c3.149,5.963,5.123,12.475,5.817,19.183c-0.061,11.327,6.135,21.763,16.108,27.133c3.389,1.709,7.13,2.602,10.925,2.608
			c6.053-0.109,11.902-2.202,16.65-5.958c1.806-1.363,2.996-3.389,3.309-5.63S136.172,393.505,134.808,391.7z"/>
		<path d="M477.867,0H34.133C15.29,0.019,0.019,15.29,0,34.133v256c0.047,0.354,0.118,0.704,0.211,1.049
			c0.035,9.14,0.837,18.261,2.397,27.268c5.778,32.351,16.929,63.506,32.992,92.175c2.815,5.318,5.181,9.89,6.971,13.947
			c-1.179,17.382-23.501,66.022-30.446,71.936c-3.029,2.15-4.319,6.013-3.19,9.552c1.129,3.539,4.417,5.941,8.132,5.94H358.4
			c2.264,0.001,4.435-0.897,6.035-2.498c1.601-1.601,2.499-3.772,2.498-6.035c-0.028-23.553-19.114-42.639-42.667-42.667h-8.533
			v-25.6h162.133c18.844-0.019,34.115-15.29,34.133-34.133V34.133C511.981,15.29,496.71,0.019,477.867,0z M34.133,17.067h443.733
			c9.421,0.012,17.054,7.646,17.067,17.067v315.733h-17.067V153.6c0-4.713-3.821-8.533-8.533-8.533c-4.713,0-8.533,3.82-8.533,8.533
			v29.439l-72.4,45.786l-45.325-28.683c-4.922-3.063-11.006-3.604-16.392-1.458l-44.006,17.899
			c-8.043-15.018-18.671-28.5-31.396-39.827c3.123-10.273,4.713-20.951,4.719-31.689c-0.002-7.291-0.717-14.565-2.133-21.717
			c-4.419-22.312-15.617-42.716-32.067-58.425l-0.006-0.006l-0.002-0.003l-0.004-0.003C185.1,29.715,129.176,23.976,86.104,50.989
			s-62.255,79.856-46.543,128.209c-9.254,10.358-16.843,22.09-22.495,34.778V34.133C17.079,24.713,24.713,17.079,34.133,17.067z
			 M299.696,349.867c-4.255-6.181-6.898-13.329-7.688-20.792c-0.13-5.554,0.401-11.103,1.582-16.531l13.726,7.781
			c5.757,3.281,12.851,3.133,18.467-0.383l15.933-10.175c0.31-0.193,0.707-0.176,1,0.042L360.85,327
			c3.304,3.141,7.691,4.89,12.25,4.883c1.404,0.001,2.804-0.17,4.167-0.508l83.533-19.788v38.279H299.696z M299.325,283.6
			c0.049-0.652,0.019-1.341,0.052-2h14.906c2.651,0.009,5.269-0.593,7.65-1.758l29.442-13.908c0.262-0.135,0.574-0.132,0.833,0.009
			l20.417,12.949c2.857,1.76,6.144,2.697,9.5,2.708h39.767c3.093-0.001,6.135-0.796,8.833-2.308l30.075-17.138v31.882
			l-88.166,20.622l-18.1-17.158c-5.959-5.605-14.943-6.501-21.892-2.183l-15.934,10.175c-0.295,0.167-0.655,0.167-0.95,0
			l-18.12-10.274C298.464,291.388,299.027,287.506,299.325,283.6z M460.8,242.491l-38.908,22.043l-40.233-0.125l-20.35-12.908
			c-5.191-3.255-11.684-3.632-17.217-1l-29.808,14.033H298.44c-0.674-4.727-1.591-9.417-2.748-14.05
			c-1.529-6.254-3.474-12.399-5.82-18.395l43.153-17.555c0.299-0.12,0.635-0.108,0.925,0.033l45.292,28.658
			c5.56,3.594,12.709,3.601,18.275,0.017l63.283-40.021V242.491z M51.2,145.067c0.068-48.5,37.038-88.98,85.333-93.434v85.347
			c-23.585,1.488-46.575,8.023-67.417,19.162c-1.779,0.95-3.425,2.043-5.131,3.07c-0.175,0.13-0.388,0.188-0.553,0.332
			c-3.373,2.052-6.634,4.284-9.768,6.686C52.048,159.291,51.222,152.191,51.2,145.067z M203.548,71.636L153.6,123.811V51.605
			C171.857,53.223,189.232,60.191,203.548,71.636z M235.046,118.404l-65.079,12.988l45.89-47.931
			C224.699,93.587,231.246,105.508,235.046,118.404z M193.419,144.113l44.958-8.975c0.36,3.297,0.545,6.612,0.556,9.929
			c-0.016,6.799-0.776,13.575-2.267,20.208C223.381,156.114,208.805,148.982,193.419,144.113z M86.584,166.606
			c20.665-9.354,43.232-13.746,65.897-12.826c-2.174,6.2-3.595,12.639-4.233,19.179c-5.966,2.111-11.601,5.062-16.732,8.766
			c-1.533,1.017-3.1,2.042-4.742,3.058c-4.061,2.565-8.35,4.749-12.812,6.526C105.942,181.926,96.739,173.623,86.584,166.606z
			 M69.308,175.903c8.877,5.087,17.049,11.315,24.308,18.524c-4.645-0.033-9.272,0.592-13.742,1.856
			c-15.6,4.85-22.325,19.183-28.258,31.825c-2.048,4.763-4.502,9.341-7.333,13.684c-3.894,5.399-9.123,7.907-20.598,3.052
			c0.925-3.177,1.889-6.367,3.031-9.585C33.948,211.302,48.929,190.425,69.308,175.903z M19.823,261.526
			c4.706,1.824,9.69,2.827,14.735,2.966c9.509,0.043,18.387-4.751,23.567-12.725c3.47-5.188,6.463-10.68,8.942-16.408
			c4.867-10.367,9.458-20.158,17.883-22.783c3.698-0.889,7.499-1.27,11.3-1.133c2.758-0.05,5.525-0.1,8.258-0.375
			c0.894-0.09,1.796-0.324,2.692-0.459c1.32,1.925,2.482,3.954,3.475,6.067c1.456,3.418,2.727,6.701,3.84,9.727
			c-3.43,1.741-6.57,4.003-9.306,6.706c-7.297,7.147-11.389,16.944-11.342,27.158c-0.011,11.778-9.556,21.322-21.333,21.333H42.667
			c-9.197-0.094-18.156,2.917-25.428,8.547C17.219,280.548,18.084,270.966,19.823,261.526z M132.267,221.867
			c-0.41,0-0.798,0.105-1.206,0.118c-1.321-3.654-2.86-7.705-4.71-12.043c-0.606-1.397-1.477-2.934-2.331-4.459
			c4.037-1.798,7.95-3.86,11.715-6.174c1.783-1.1,3.492-2.225,5.158-3.317c4.846-3.822,10.525-6.449,16.575-7.667
			c11.16-1.585,32.122,0.237,52.185,27.876c-12.05,3.716-24.584,5.625-37.193,5.666H132.267z M226.125,210.035
			c-20.931-31.121-44.2-38.657-60.59-39.182c0.862-5.169,2.31-10.222,4.315-15.064c3.862,0.698,7.773,1.507,11.725,2.543
			c19.648,5.157,37.998,14.372,53.869,27.051c0.294,0.273,0.608,0.525,0.939,0.753c4.1,3.386,7.986,7.023,11.635,10.89
			C241.171,202.08,233.837,206.438,226.125,210.035z M33.658,494.933c12.217-21.275,26.092-57.175,26.092-71.8l-0.026-0.121
			c0.017-1.153-0.202-2.297-0.642-3.362c-2.125-5.142-5.033-10.642-8.4-17.008c-15.278-27.099-25.852-56.592-31.275-87.225
			c-0.129-0.716-0.162-1.448-0.28-2.166c4.57-8.818,13.608-14.418,23.538-14.584h29.867c21.198-0.023,38.377-17.202,38.4-38.4
			c0.081-11.748,9.585-21.252,21.333-21.333h40.192c31.138-0.064,61.432-10.135,86.409-28.729
			c9.534,13.352,16.412,28.412,20.257,44.362c2.542,9.031,3.617,18.412,3.183,27.783c-0.23,2.964-0.65,5.91-1.256,8.82
			c-7.95-4.425-16.579-7.501-25.535-9.103c-9.88-0.91-19.836,0.452-29.108,3.983c-2.258,0.683-4.492,1.358-6.7,1.933
			c-4.549,1.202-7.267,5.859-6.077,10.411s5.838,7.283,10.394,6.106c2.4-0.633,4.842-1.367,7.308-2.108
			c6.863-2.689,14.224-3.869,21.583-3.458c8.528,1.705,16.692,4.891,24.121,9.412c-1.551,6.941-2.255,14.044-2.096,21.155
			c1.693,13.993,7.205,27.249,15.933,38.317c3.07,4.222,5.656,8.775,7.708,13.575c-1.171,0.538-2.402,0.935-3.667,1.183
			c-5.433,0.076-10.607,2.33-14.363,6.257c-3.756,3.926-5.777,9.196-5.612,14.627c0.424,6.979,0.019,13.983-1.208,20.867
			c-0.436,1.524-1.294,2.893-2.475,3.95c-0.617,0.608-1.008,0.733-2.717,1.142c-6.033,1.408-12.2,4.567-12.2,17.217
			c0,2.8,0.267,5.6,0.542,8.342c0.958,9.45,1.183,11.7-7.175,14.458c-14.708,4.933-85.642-11.975-102.25-34.067
			c-1.827-2.449-4.824-3.735-7.858-3.37c-3.034,0.364-5.642,2.322-6.837,5.134c-1.196,2.812-0.797,6.048,1.045,8.486
			c10.769,11.732,24.263,20.629,39.29,25.904c-3.556,7.438-6.123,15.309-7.636,23.413H33.658z M348.408,494.933H182.821
			c1.433-6.06,3.572-11.932,6.375-17.493c17.007,5.804,34.765,9.117,52.721,9.834c4.451,0.138,8.896-0.419,13.175-1.65
			c4.94-1.451,9.436-4.119,13.078-7.758h56.097C335.113,477.88,344.778,484.713,348.408,494.933z M298.667,460.8h-24.339
			c-0.022-2.52-0.176-5.038-0.462-7.542c-0.217-2.175-0.458-4.4-0.458-6.625c0-0.317,0.009-0.592,0.017-0.842
			c3.732-0.844,7.151-2.721,9.867-5.417c1.568-1.56,2.949-3.297,4.116-5.175h11.258V460.8z M477.867,418.133H291.782
			c0.217-4.049,0.226-8.778,0.226-14.675c0-1.383,0-3.692,3.925-3.842c0.562-0.001,1.123-0.057,1.675-0.167
			c7.152-0.776,13.481-4.981,16.967-11.275c2.179-7.322,0.659-15.246-4.075-21.242h184.433v34.133
			C494.921,410.487,487.287,418.121,477.867,418.133z"/>
		<path d="M310.03,134.478c0.076,0.024,0.126,0.083,0.203,0.105c0.148,0.042,0.294,0.028,0.442,0.061
			c19.038,5.287,39.418-0.871,52.341-15.817c12.924-14.946,16.076-36.001,8.096-54.076c-0.027-0.068-0.016-0.141-0.046-0.209
			c-0.042-0.093-0.125-0.148-0.17-0.239c-9.723-21.586-32.983-33.685-56.239-29.252c-23.256,4.433-40.435,24.239-41.536,47.888
			C272.021,106.588,287.286,127.905,310.03,134.478L310.03,134.478z M324.267,119.467c-0.282,0-0.544-0.077-0.825-0.083l7.94-27.871
			l26.456-11.752c0.342,1.839,0.53,3.703,0.563,5.573C358.381,104.177,343.11,119.448,324.267,119.467z M350.85,64.184l-18.05,8.018
			V52.412C339.934,54.275,346.269,58.407,350.85,64.184z M315.733,52.412v31.73l-8.69,30.494
			c-11.935-6.917-18.492-20.373-16.584-34.035C292.367,66.939,302.36,55.794,315.733,52.412z"/>
		<path d="M401.067,59.733h68.267c4.713,0,8.533-3.821,8.533-8.533s-3.821-8.533-8.533-8.533h-68.267
			c-4.713,0-8.533,3.821-8.533,8.533S396.354,59.733,401.067,59.733z"/>
		<path d="M401.067,93.867h17.067c4.713,0,8.533-3.821,8.533-8.533s-3.82-8.533-8.533-8.533h-17.067
			c-4.713,0-8.533,3.821-8.533,8.533S396.354,93.867,401.067,93.867z"/>
		<path d="M401.067,128h42.667c4.713,0,8.533-3.821,8.533-8.533c0-4.713-3.82-8.533-8.533-8.533h-42.667
			c-4.713,0-8.533,3.821-8.533,8.533C392.533,124.179,396.354,128,401.067,128z"/>
	</g>
</g>
<g>
</g>
<g>
</g>
<g>
</g>
<g>
</g>
<g>
</g>
<g>
</g>
<g>
</g>
<g>
</g>
<g>
</g>
<g>
</g>
<g>
</g>
<g>
</g>
<g>
</g>
<g>
</g>
<g>
</g>
</svg>
