<?xml version="1.0" encoding="iso-8859-1"?>
<!-- Generator: Adobe Illustrator 19.0.0, SVG Export Plug-In . SVG Version: 6.00 Build 0)  -->
<svg version="1.1" id="Capa_1" xmlns="http://www.w3.org/2000/svg" xmlns:xlink="http://www.w3.org/1999/xlink" x="0px" y="0px"
	 viewBox="0 0 512 512" style="enable-background:new 0 0 512 512;" xml:space="preserve">
<g>
	<g transform="translate(1 1)">
		<path style="fill:#37474F;" d="M502.467,408.6v85.333c-0.014,4.707-3.826,8.519-8.533,8.533H16.067
			c-4.707-0.014-8.519-3.826-8.533-8.533V408.6H502.467z"/>
		<path style="fill:#607D8B;" d="M476.867,408.6v85.333c-0.014,4.707-3.826,8.519-8.533,8.533H16.067
			c-4.707-0.014-8.519-3.826-8.533-8.533V408.6H476.867z"/>
		<rect x="135.533" y="400.067" style="fill:#CFD8DC;" width="238.933" height="34.133"/>
		<path style="fill:#2296F3;" d="M139.203,106.008l25.429,25.429c3.232,3.167,5.048,7.506,5.035,12.032v34.133
			c0,9.426-7.641,17.067-17.067,17.067c-9.426,0-17.067-7.641-17.067-17.067v-27.051l-20.224-20.224H70.424L50.2,150.552v27.051
			c0,9.426-7.641,17.067-17.067,17.067s-17.067-7.641-17.067-17.067v-34.133c-0.013-4.526,1.802-8.865,5.035-12.032l25.429-25.429
			H139.203z"/>
		<path style="fill:#607D8B;" d="M41.667,84.333h-25.6c-4.713,0-8.533-3.82-8.533-8.533V41.667c0-4.713,3.821-8.533,8.533-8.533
			h76.8L41.667,84.333z"/>
		<g>
			<circle style="fill:#CFD8DC;" cx="92.867" cy="237.933" r="34.133"/>
			<path style="fill:#CFD8DC;" d="M152.6,347.587V370.2H33.133v-22.613c0.099-3.888,2.734-7.251,6.485-8.277
				c27.648-8.96,27.648-67.243,27.648-67.243h51.2c0,0,0,58.283,27.648,67.243C149.866,340.335,152.501,343.699,152.6,347.587z"/>
			<path style="fill:#CFD8DC;" d="M33.133,365.933H152.6c9.426,0,17.067,7.641,17.067,17.067l0,0
				c0,9.426-7.641,17.067-17.067,17.067H33.133c-9.426,0-17.067-7.641-17.067-17.067l0,0
				C16.067,373.574,23.708,365.933,33.133,365.933z"/>
		</g>
		<g>
			<path style="fill:#607D8B;" d="M127,237.933c0.002,9.053-3.593,17.737-9.995,24.139c-6.402,6.402-15.085,9.997-24.139,9.995
				c-4.397,0.034-8.754-0.838-12.8-2.56c12.889-5.184,21.333-17.681,21.333-31.573s-8.444-26.39-21.333-31.573
				c4.046-1.722,8.403-2.594,12.8-2.56c9.054-0.003,17.737,3.593,24.139,9.995C123.407,220.196,127.003,228.88,127,237.933z"/>
			<path style="fill:#607D8B;" d="M169.667,383c-0.028,9.414-7.652,17.039-17.067,17.067H127c9.426,0,17.067-7.641,17.067-17.067
				c0-9.426-7.641-17.067-17.067-17.067v-18.347c-0.099-3.888-2.734-7.251-6.485-8.277c-27.648-8.96-27.648-67.243-27.648-67.243
				h25.6c0,0,0,58.283,27.648,67.243c3.751,1.026,6.387,4.389,6.485,8.277v18.347C162.014,365.961,169.639,373.586,169.667,383z"/>
		</g>
		<g>
			<path style="fill:#3F51B5;" d="M485.4,347.587v26.88H365.933v-26.88c0.099-3.888,2.734-7.251,6.485-8.277
				c27.648-8.96,27.648-75.776,27.648-75.776h51.2c0,0,0,66.816,27.648,75.776C482.666,340.335,485.301,343.699,485.4,347.587z"/>
			<path style="fill:#3F51B5;" d="M365.933,365.933H485.4c9.426,0,17.067,7.641,17.067,17.067l0,0
				c0,9.426-7.641,17.067-17.067,17.067H365.933c-9.426,0-17.067-7.641-17.067-17.067l0,0
				C348.867,373.574,356.508,365.933,365.933,365.933z"/>
			<rect x="7.533" y="400.067" style="fill:#3F51B5;" width="162.133" height="34.133"/>
		</g>
		<rect x="340.333" y="400.067" style="fill:#283593;" width="162.133" height="34.133"/>
		<g>
			<rect x="340.333" y="400.067" style="fill:#3F51B5;" width="136.533" height="34.133"/>
			<path style="fill:#3F51B5;" d="M442.69,263.533c10.813-10.695,16.96-25.23,17.104-40.438c0.026-6.097-2.162-11.996-6.157-16.601
				c-4.233-4.535-10.685-4.426-15.426-8.326h-25.088c-4.74,3.9-11.193,3.791-15.426,8.326c-3.995,4.605-6.183,10.504-6.157,16.601
				c0.144,15.208,6.291,29.743,17.104,40.438H442.69z"/>
		</g>
		<path style="fill:#283593;" d="M502.467,383c-0.028,9.414-7.653,17.039-17.067,17.067h-25.6c9.426,0,17.067-7.641,17.067-17.067
			c0-9.426-7.641-17.067-17.067-17.067v-18.347c-0.099-3.888-2.734-7.251-6.485-8.277c-27.648-8.96-27.648-75.776-27.648-75.776
			h-8.619c10.841-10.684,17.008-25.228,17.152-40.448c0.048-6.084-2.138-11.975-6.144-16.555
			c-4.181-4.523-10.411-4.437-15.189-8.192c0.085,0,0.171-0.085,0.256-0.171h25.088c4.779,3.925,11.179,3.755,15.446,8.363
			c4.006,4.58,6.192,10.47,6.143,16.555c-0.144,15.22-6.311,29.764-17.152,40.448h8.619c0,0,0,66.816,27.648,75.776
			c3.751,1.026,6.387,4.389,6.485,8.277v18.347C494.814,365.961,502.439,373.586,502.467,383z"/>
		<circle style="fill:#2296F3;" cx="92.867" cy="84.333" r="51.2"/>
		<circle style="fill:#3F51B5;" cx="92.867" cy="84.333" r="17.067"/>
		<path style="fill:#795548;" d="M460.227,15.981c-17.346,0.031-34.676-1.053-51.883-3.243c-18.773-2.389-43.093-5.205-53.077-5.205
			c-17.237,0-51.797,50.859-60.416,76.288c-7.129,19.796-11.911,40.359-14.251,61.269c-0.106,3.985,1.418,7.841,4.221,10.676
			c2.803,2.835,6.641,4.403,10.627,4.343c9.131,0,13.995-8.96,16.64-16.299v-0.085c0.058,1.094,0.16,2.1,0.304,3.1
			c0.471,5.884,3.257,11.341,7.747,15.173c3.221,2.208,7.115,3.216,11.003,2.848c5.887-0.085,11.534-2.35,15.847-6.357
			c-0.151-0.344-0.208-0.717-0.333-1.069c0.468,1.46,1.125,2.851,1.955,4.14c3.106,4.498,8.032,7.404,13.471,7.946
			c5.439,0.542,10.842-1.334,14.775-5.13l12.971-12.715c10.239-10.069,38.826-30.976,52.906-41.728
			c20.853-0.577,41.292-5.95,59.733-15.701V15.981H460.227z M345.624,151.661c0.022,1.52,0.236,3.031,0.638,4.496
			C345.857,154.693,345.642,153.181,345.624,151.661z M389.827,100.803l-33.877,33.365c4.121-24.392,11.707-48.069,22.528-70.315
			c3.836-2.015,7.14-4.91,9.643-8.448c8.011,6.958,13.996,15.95,17.323,26.027C400.683,88.236,395.465,94.707,389.827,100.803z"/>
		<circle style="fill:#3F51B5;" cx="425.667" cy="186.733" r="17.067"/>
		<g>
			<path style="fill:#4E342E;" d="M355.949,134.168L351,138.947c-3.457,3.323-5.401,7.919-5.376,12.715
				c-0.026,2.346,0.439,4.671,1.365,6.827c-4.314,4.007-9.96,6.272-15.848,6.357c-3.888,0.368-7.781-0.64-11.002-2.848
				c-4.49-3.832-7.276-9.289-7.748-15.173c-0.144-1-0.245-2.006-0.304-3.1c7.917-24.939,20.133-48.302,36.096-69.035
				c10.724-1.536,21.028-5.222,30.293-10.836C367.657,86.099,360.071,109.776,355.949,134.168z"/>
			<path style="fill:#4E342E;" d="M502.467,15.981v78.251c-8.211,4.192-16.778,7.647-25.6,10.325V15.981H502.467z"/>
		</g>
	</g>
	<g>
		<path d="M17.067,512h477.867c9.422-0.009,17.057-7.645,17.067-17.067v-93.867c-0.001-2.292-0.929-4.486-2.573-6.083
			c1.673-3.421,2.553-7.175,2.573-10.983c-0.033-10.813-6.868-20.435-17.067-24.028v-11.385
			c-0.109-7.583-5.123-14.219-12.387-16.396c-14.315-4.641-20.2-37.704-21.47-59.181c4.642-0.151,8.305-3.997,8.229-8.641
			s-3.861-8.369-8.505-8.37h-0.006c5.572-9.762,8.512-20.805,8.531-32.046c-0.008-8.208-3.013-16.13-8.45-22.279
			c-2.771-2.83-6.171-4.967-9.922-6.238c0.835-2.484,1.278-5.083,1.314-7.704c0-14.138-11.462-25.6-25.6-25.6
			s-25.6,11.462-25.6,25.6c0.036,2.621,0.479,5.219,1.314,7.704c-3.751,1.271-7.15,3.406-9.923,6.234
			c-5.436,6.15-8.44,14.072-8.45,22.279c0.019,11.242,2.959,22.286,8.531,32.05h-0.006c-4.665-0.026-8.481,3.709-8.555,8.374
			s3.623,8.518,8.286,8.639c-1.255,21.469-7.122,54.526-21.44,59.167c-7.281,2.168-12.312,8.812-12.425,16.408v11.385
			c-10.199,3.592-17.033,13.214-17.067,24.028c0.029,2.914,0.561,5.801,1.573,8.533H177.628c1.012-2.733,1.544-5.62,1.572-8.533
			c-0.033-10.813-6.868-20.435-17.067-24.028v-11.385c-0.109-7.583-5.123-14.219-12.388-16.396
			c-14.818-4.802-20.039-33.513-21.362-50.669c4.628-0.19,8.251-4.052,8.147-8.683s-3.899-8.325-8.531-8.306h-0.218
			c5.644-7.343,8.719-16.338,8.752-25.6c0-23.564-19.103-42.667-42.667-42.667S51.2,215.369,51.2,238.933
			c0.032,9.262,3.107,18.257,8.752,25.6h-0.218c-4.632-0.019-8.426,3.675-8.531,8.306s3.519,8.493,8.147,8.683
			c-1.321,17.157-6.537,45.865-21.324,50.657c-7.281,2.168-12.312,8.812-12.425,16.408v11.385
			C15.401,363.565,8.567,373.187,8.533,384c0.029,2.914,0.561,5.801,1.573,8.533H8.533c-4.713,0-8.533,3.82-8.533,8.533v93.867
			C0.009,504.355,7.645,511.991,17.067,512z M17.067,494.933v-51.2h477.867l0.012,51.2H17.067z M17.067,409.6h145.067v17.067H17.067
			V409.6z M349.867,409.6h145.067v17.067H349.867V409.6z M426.667,179.2c3.414-0.018,6.507,2.011,7.849,5.15
			c1.343,3.139,0.674,6.777-1.697,9.233c-0.057,0.065-0.139,0.091-0.194,0.158l-0.06,0.111c-3.274,3.218-8.524,3.218-11.798,0
			l-0.06-0.111c-0.055-0.067-0.138-0.093-0.194-0.158c-2.371-2.457-3.04-6.095-1.697-9.234
			C420.16,181.211,423.252,179.182,426.667,179.2z M404.933,213.316c1.458-1.156,3.139-2,4.937-2.479
			c1.055-0.394,2.222-0.855,3.421-1.377c8.169,5.164,18.58,5.164,26.749,0c1.199,0.522,2.367,0.983,3.421,1.377
			c1.8,0.478,3.481,1.324,4.938,2.483c2.547,3.064,3.915,6.937,3.858,10.921c-0.163,11.71-4.512,22.976-12.258,31.759h-26.667
			c-7.747-8.784-12.095-20.051-12.258-31.763C401.02,220.254,402.388,216.381,404.933,213.316L404.933,213.316z M376.046,348.425
			c26.971-8.737,32.279-55.283,33.313-75.358h34.621c1.046,20.067,6.437,66.621,33.888,75.696v9.637H375.733L376.046,348.425z
			 M358.4,384c0.006-4.71,3.823-8.527,8.533-8.533H486.4c4.713,0,8.533,3.821,8.533,8.533s-3.82,8.533-8.533,8.533H366.933
			C362.223,392.527,358.406,388.71,358.4,384z M332.8,426.667H179.2V409.6h153.6V426.667z M93.867,213.333
			c14.138,0,25.6,11.462,25.6,25.6c0,14.138-11.462,25.6-25.6,25.6s-25.6-11.462-25.6-25.6
			C68.282,224.801,79.735,213.349,93.867,213.333z M43.246,348.425c26.483-8.579,32.079-48.562,33.25-66.825h34.746
			c1.188,18.258,6.871,58.258,33.825,67.163v9.637H42.933L43.246,348.425z M25.6,384c0.006-4.71,3.823-8.527,8.533-8.533H153.6
			c4.713,0,8.533,3.821,8.533,8.533s-3.821,8.533-8.533,8.533H34.133C29.423,392.527,25.606,388.71,25.6,384z"/>
		<path d="M503.467,8.45h-42.242c-16.986,0.039-33.956-1.023-50.804-3.179C391.508,2.867,366.758,0,356.267,0
			c-24.462,0-60.471,58.408-68.5,82.083c-7.273,20.599-12.201,41.952-14.692,63.654c-0.272,6.197,2.022,12.232,6.342,16.683
			c4.465,4.616,10.612,7.222,17.033,7.221c5.252-0.024,10.314-1.967,14.234-5.463c1.826,2.662,4.173,4.926,6.9,6.655
			c3.953,2.431,8.518,3.683,13.158,3.608c5.18-0.12,10.294-1.194,15.084-3.17c0.063,0.063,0.106,0.141,0.17,0.203
			c10.54,10.25,27.323,10.25,37.862,0l12.95-12.717c7.704-7.567,27.242-22.283,41.508-33.025c3.122-2.351,5.928-4.47,8.48-6.411
			c21.14-1.061,41.799-6.687,60.557-16.493c0.332-0.226,0.646-0.476,0.94-0.748c0.513-0.325,0.99-0.705,1.421-1.132
			c0.644-0.87,1.209-1.795,1.689-2.765c0.181-0.57,0.299-1.158,0.354-1.754c0.111-0.392,0.192-0.792,0.241-1.196V17.067
			l-0.009-0.042L512,16.983C512,12.271,508.179,8.45,503.467,8.45z M326.637,156.367c-2.992-2.708-4.739-6.527-4.83-10.561
			l0.643-1.764c7.125-21.75,17.745-42.193,31.444-60.528c3.127-0.575,6.223-1.313,9.272-2.213
			c-6.641,15.969-11.427,32.647-14.265,49.708l-2.906,2.854c-6.078,5.567-8.934,13.827-7.593,21.959
			C334.734,157.654,330.461,157.851,326.637,156.367L326.637,156.367z M396.776,81.153c-3.663,5.101-7.646,9.964-11.926,14.56
			l-13.424,13.181c4.142-13.057,9.099-25.842,14.84-38.279c0.882-0.591,1.771-1.261,2.726-1.991
			C392.227,72.366,394.854,76.594,396.776,81.153L396.776,81.153z M384.85,146.583L371.9,159.3
			c-3.883,3.774-10.065,3.772-13.946-0.004c-1.788-1.742-2.796-4.131-2.796-6.627c0-2.496,1.008-4.886,2.796-6.627l38.855-38.154
			c9.754-11.134,18.767-22.897,26.979-35.213c2.646-3.898,1.632-9.204-2.267-11.85c-3.898-2.646-9.204-1.632-11.85,2.267
			c-0.463,0.681-1.073,1.565-1.695,2.466c-3.446-5.355-7.547-10.259-12.206-14.6c-0.213-0.228-0.44-0.443-0.677-0.646l-0.217-0.207
			c-0.057-0.051-0.132-0.063-0.189-0.113c-0.5-0.518-1.067-0.966-1.686-1.332c-0.318-0.109-0.642-0.198-0.971-0.267l-0.203-0.056
			c-0.989-0.342-2.033-0.496-3.078-0.456l-0.034,0.004c-1.059,0.048-2.098,0.3-3.061,0.742c-0.092,0.041-0.171,0.101-0.263,0.146
			c-0.842,0.414-1.604,0.973-2.254,1.649c-0.095,0.095-0.223,0.13-0.315,0.23c-0.16,0.236-0.307,0.481-0.44,0.733
			c-0.281,0.306-0.538,0.634-0.768,0.98c-1.9,2.115-4.148,3.891-6.646,5.25c-8.271,4.976-17.451,8.251-27.004,9.633
			c-0.383,0.106-0.758,0.239-1.121,0.4c-1.223,0.22-2.34,0.833-3.182,1.747c-0.343,0.23-0.668,0.486-0.972,0.766
			c-0.111,0.13-0.203,0.271-0.314,0.401l-0.04,0.051c-15.818,20.282-27.978,43.168-35.934,67.628l-0.751,2.059
			c-0.261,0.53-0.464,1.086-0.606,1.659c-1.752,4.855-4.662,10.619-8.593,10.619c-1.776,0.02-3.483-0.693-4.717-1.971
			c-1.087-1.11-1.669-2.618-1.608-4.171c2.314-20.091,6.948-39.846,13.808-58.871c9.612-28.354,42.541-70.496,52.333-70.496
			c7.487,0,25.958,1.825,51.988,5.133c17.567,2.248,35.261,3.356,52.971,3.317h33.708v64.387
			c-16.001,7.769-33.477,12.029-51.258,12.496c-0.329,0.048-0.654,0.116-0.974,0.204c-1.162,0.095-2.282,0.479-3.258,1.117
			c-0.307,0.127-0.607,0.274-0.896,0.438c-2.958,2.263-6.558,4.975-10.496,7.942C412.592,123.742,393.354,138.233,384.85,146.583
			L384.85,146.583z"/>
		<path d="M68.267,85.333c0,14.138,11.462,25.6,25.6,25.6s25.6-11.462,25.6-25.6s-11.462-25.6-25.6-25.6
			C79.735,59.749,68.282,71.201,68.267,85.333z M102.4,85.333c0,4.713-3.821,8.533-8.533,8.533c-4.713,0-8.533-3.821-8.533-8.533
			s3.821-8.533,8.533-8.533C98.577,76.806,102.394,80.623,102.4,85.333z"/>
		<path d="M17.067,93.867h17.748c0.54,3.775,1.444,7.49,2.698,11.091l-21.367,21.367c-4.867,4.784-7.609,11.321-7.612,18.146v34.133
			c0,14.139,11.462,25.6,25.6,25.6s25.6-11.462,25.6-25.6v-23.521l13.697-13.695c13.183,4.903,27.689,4.903,40.872,0L128,155.083
			v23.521c0,14.139,11.462,25.6,25.6,25.6s25.6-11.462,25.6-25.6v-34.133c0.004-6.787-2.708-13.293-7.533-18.067l-21.446-21.446
			c6.426-18.256,3.584-38.496-7.622-54.276C131.393,34.902,113.22,25.549,93.867,25.6h-76.8C7.645,25.609,0.009,33.245,0,42.667
			V76.8C0.009,86.222,7.645,93.857,17.067,93.867z M45.167,145.517c-1.6,1.6-2.5,3.77-2.5,6.033v27.054
			c0,4.713-3.821,8.533-8.533,8.533s-8.533-3.821-8.533-8.533v-34.133c0-2.26,0.914-4.424,2.533-6l17.734-17.734
			c3.392,4.587,7.419,8.669,11.961,12.121L45.167,145.517z M159.679,138.55c1.577,1.566,2.461,3.698,2.454,5.921v34.133
			c0,4.713-3.821,8.533-8.533,8.533s-8.533-3.821-8.533-8.533V151.55c-0.001-2.263-0.9-4.433-2.5-6.033l-12.661-12.659
			c4.542-3.452,8.569-7.533,11.961-12.121L159.679,138.55z M136.533,85.333c0,23.564-19.103,42.667-42.667,42.667
			S51.2,108.897,51.2,85.333s19.103-42.667,42.667-42.667C117.419,42.694,136.506,61.781,136.533,85.333z M17.067,42.667h35.075
			C42.768,51.828,36.678,63.826,34.815,76.8H17.067V42.667z"/>
	</g>
</g>
<g>
</g>
<g>
</g>
<g>
</g>
<g>
</g>
<g>
</g>
<g>
</g>
<g>
</g>
<g>
</g>
<g>
</g>
<g>
</g>
<g>
</g>
<g>
</g>
<g>
</g>
<g>
</g>
<g>
</g>
</svg>
