<?xml version="1.0" encoding="iso-8859-1"?>
<!-- Generator: Adobe Illustrator 19.0.0, SVG Export Plug-In . SVG Version: 6.00 Build 0)  -->
<svg version="1.1" id="Capa_1" xmlns="http://www.w3.org/2000/svg" xmlns:xlink="http://www.w3.org/1999/xlink" x="0px" y="0px"
	 viewBox="0 0 512 512" style="enable-background:new 0 0 512 512;" xml:space="preserve">
<g>
	<g transform="translate(1 1)">
		<rect x="58.733" y="468.333" style="fill:#2296F3;" width="136.533" height="34.133"/>
		<path style="fill:#FFEB3A;" d="M340.333,152.6c23.564,0,42.667-19.103,42.667-42.667s-19.103-42.667-42.667-42.667H50.2
			c-23.564,0-42.667,19.103-42.667,42.667S26.636,152.6,50.2,152.6H340.333z"/>
		<path style="fill:#0377BC;" d="M229.4,195.267c9.426,0,17.067,7.641,17.067,17.067c0,9.426-7.641,17.067-17.067,17.067
			c9.426,0,17.067,7.641,17.067,17.067c0,9.426-7.641,17.067-17.067,17.067h85.333c6.792-0.009,13.309,2.685,18.112,7.488
			c4.803,4.803,7.497,11.32,7.488,18.112v179.2H50.2l0-179.2c-0.009-6.792,2.685-13.309,7.488-18.112
			c4.803-4.803,11.32-7.497,18.112-7.488h84.736c-9.189-0.328-16.469-7.872-16.469-17.067c0-9.195,7.28-16.739,16.469-17.067
			c-9.305-0.328-16.631-8.051-16.468-17.36c0.163-9.309,7.755-16.771,17.066-16.773H75.8c-6.792,0.009-13.309-2.685-18.112-7.488
			s-7.497-11.32-7.488-18.112V33.133c-0.009-6.792,2.685-13.309,7.488-18.112S69.008,7.524,75.8,7.533h238.933
			c6.792-0.009,13.309,2.685,18.112,7.488c4.803,4.803,7.497,11.32,7.488,18.112v136.533c0.009,6.792-2.685,13.309-7.488,18.112
			c-4.803,4.803-11.32,7.497-18.112,7.488H229.4z"/>
		<path style="fill:#02A9F4;" d="M204.653,195.267c9.086,0.466,16.214,7.969,16.214,17.067c0,9.098-7.128,16.601-16.214,17.067
			c9.25,0.468,16.44,8.224,16.209,17.483c-0.231,9.259-7.801,16.645-17.062,16.651h85.333c6.792-0.009,13.309,2.685,18.112,7.488
			c4.803,4.803,7.497,11.32,7.488,18.112v179.2H50.2l0-179.2c-0.009-6.792,2.685-13.309,7.488-18.112
			c4.803-4.803,11.32-7.497,18.112-7.488h84.565c-0.065-0.009-0.125-0.039-0.171-0.085c-0.832,0.004-1.661-0.082-2.475-0.256
			c-1.888-0.398-3.702-1.089-5.376-2.048l-1.024-0.768c-1.248-0.863-2.368-1.897-3.328-3.072c-0.617-0.741-1.161-1.542-1.621-2.389
			c-0.482-0.751-0.883-1.552-1.195-2.389c-0.414-1.101-0.7-2.247-0.853-3.413c-0.342-1.747-0.342-3.544,0-5.291
			c0.153-1.167,0.439-2.312,0.853-3.413c0.312-0.837,0.712-1.638,1.195-2.389v-0.085c0.471-0.815,1.013-1.586,1.621-2.304
			c0.423-0.594,0.942-1.113,1.536-1.536c0.211-0.297,0.471-0.557,0.768-0.768c0.32-0.283,0.663-0.54,1.024-0.768l1.024-0.768
			c1.674-0.959,3.488-1.65,5.376-2.048c0.698-0.174,1.414-0.26,2.133-0.256c0.219-0.076,0.452-0.105,0.683-0.085
			c-0.231,0.019-0.464-0.01-0.683-0.085c-0.663,0.005-1.323-0.082-1.963-0.256c-1.949-0.374-3.823-1.066-5.547-2.048l-1.024-0.768
			c-1.248-0.863-2.368-1.897-3.328-3.072c-0.608-0.718-1.151-1.489-1.621-2.304v-0.085c-0.482-0.751-0.883-1.552-1.195-2.389
			c-0.414-1.101-0.7-2.247-0.853-3.413c-0.174-0.871-0.26-1.757-0.256-2.645c0.027-9.414,7.652-17.039,17.067-17.067H75.8
			c-6.792,0.009-13.309-2.685-18.112-7.488s-7.497-11.32-7.488-18.112V33.133c-0.009-6.792,2.685-13.309,7.488-18.112
			S69.008,7.524,75.8,7.533h213.333c6.792-0.009,13.309,2.685,18.112,7.488c4.803,4.803,7.497,11.32,7.488,18.112v136.533
			c0.009,6.792-2.685,13.309-7.488,18.112c-4.803,4.803-11.32,7.497-18.112,7.488H204.653z"/>
		<path style="fill:#1566C0;" d="M229.4,246.467c-0.028,9.414-7.652,17.039-17.067,17.067h-25.6
			c9.261-0.005,16.831-7.392,17.062-16.651c0.231-9.259-6.959-17.014-16.209-17.483c9.086-0.466,16.214-7.969,16.214-17.067
			c0-9.098-7.128-16.601-16.214-17.067h24.747c9.426,0,17.067,7.641,17.067,17.067s-7.641,17.067-17.067,17.067
			C221.748,229.428,229.373,237.052,229.4,246.467z"/>
		<path style="fill:#2296F3;" d="M203.8,246.467c-0.028,9.414-7.653,17.039-17.067,17.067h-43.435
			c-0.065-0.009-0.125-0.039-0.171-0.085c-0.832,0.004-1.661-0.082-2.475-0.256c-1.888-0.398-3.702-1.089-5.376-2.048l-1.024-0.768
			c-1.248-0.863-2.368-1.897-3.328-3.072c-0.617-0.741-1.161-1.542-1.621-2.389c-0.482-0.751-0.883-1.552-1.195-2.389
			c-0.414-1.101-0.7-2.247-0.853-3.413c-0.342-1.747-0.342-3.544,0-5.291c0.153-1.167,0.439-2.312,0.853-3.413
			c0.312-0.837,0.712-1.638,1.195-2.389v-0.085c0.471-0.815,1.013-1.586,1.621-2.304c0.423-0.594,0.942-1.113,1.536-1.536
			c0.211-0.297,0.471-0.557,0.768-0.768c0.32-0.283,0.663-0.539,1.024-0.768l1.024-0.768c1.674-0.959,3.488-1.65,5.376-2.048
			c0.698-0.174,1.414-0.26,2.133-0.256c0.219-0.076,0.452-0.105,0.683-0.085c-0.231,0.019-0.464-0.01-0.683-0.085
			c-0.663,0.005-1.323-0.082-1.963-0.256c-1.949-0.374-3.823-1.066-5.547-2.048l-1.024-0.768c-1.248-0.863-2.368-1.897-3.328-3.072
			c-0.608-0.718-1.151-1.489-1.621-2.304v-0.085c-0.482-0.751-0.883-1.552-1.195-2.389c-0.414-1.101-0.7-2.247-0.853-3.413
			c-0.174-0.871-0.26-1.757-0.256-2.645c0.028-9.414,7.652-17.039,17.067-17.067h43.52c9.086,0.466,16.214,7.969,16.214,17.067
			c0,9.098-7.128,16.601-16.214,17.067C196.65,229.914,203.751,237.388,203.8,246.467z"/>
		<g>
			<path style="fill:#FFEB3A;" d="M118.467,41.667h17.067c9.426,0,17.067,7.641,17.067,17.067V75.8
				c0,9.426-7.641,17.067-17.067,17.067h-17.067c-9.426,0-17.067-7.641-17.067-17.067V58.733
				C101.4,49.308,109.041,41.667,118.467,41.667z"/>
			<path style="fill:#FFEB3A;" d="M255,41.667h17.067c9.426,0,17.067,7.641,17.067,17.067V75.8c0,9.426-7.641,17.067-17.067,17.067
				H255c-9.426,0-17.067-7.641-17.067-17.067V58.733C237.933,49.308,245.574,41.667,255,41.667z"/>
		</g>
		<g>
			<rect x="101.4" y="161.133" style="fill:#F5F5F5;" width="187.733" height="34.133"/>
			<path style="fill:#F5F5F5;" d="M289.133,144.067v17.067H101.4v-17.067c0.028-9.414,7.652-17.039,17.067-17.067h153.6
				C281.481,127.028,289.106,134.652,289.133,144.067z"/>
		</g>
		<path style="fill:#FDD834;" d="M306.2,314.733v153.6H84.333v-153.6c0.028-9.414,7.652-17.039,17.067-17.067h187.733
			C298.548,297.694,306.173,305.319,306.2,314.733z"/>
		<path style="fill:#FFEB3A;" d="M280.6,314.733v153.6H84.333v-153.6c0.028-9.414,7.652-17.039,17.067-17.067h162.133
			C272.948,297.694,280.573,305.319,280.6,314.733z"/>
		<path style="fill:#2296F3;" d="M50.2,297.667v153.6H7.533V340.333C7.542,316.773,26.639,297.675,50.2,297.667z"/>
		<path style="fill:#607D8B;" d="M502.467,178.2v307.2c-0.028,9.414-7.653,17.039-17.067,17.067H195.267
			c-9.414-0.028-17.039-7.653-17.067-17.067V178.2H502.467z"/>
		<path style="fill:#CFD8DC;" d="M476.867,178.2v307.2c-0.028,9.414-7.653,17.039-17.067,17.067H195.267
			c-9.414-0.028-17.039-7.653-17.067-17.067V178.2H476.867z"/>
		<path style="fill:#283593;" d="M502.467,144.067v51.2H178.2v-51.2c0.027-9.414,7.652-17.039,17.067-17.067H485.4
			C494.814,127.027,502.439,134.652,502.467,144.067z"/>
		<path style="fill:#3F51B5;" d="M476.867,144.067v51.2H178.2v-51.2c0.027-9.414,7.652-17.039,17.067-17.067H459.8
			C469.214,127.027,476.839,134.652,476.867,144.067z"/>
	</g>
	<g>
		<path d="M213.333,221.867c-2.263-0.001-4.434,0.898-6.035,2.499c-1.6,1.6-2.499,3.771-2.499,6.035v238.933
			c0,4.713,3.82,8.533,8.533,8.533s8.533-3.821,8.533-8.533V230.4c0.001-2.263-0.898-4.434-2.499-6.035
			C217.768,222.765,215.597,221.866,213.333,221.867z"/>
		<path d="M247.467,307.2h25.6c4.713,0,8.533-3.82,8.533-8.533s-3.82-8.533-8.533-8.533h-25.6c-4.713,0-8.533,3.82-8.533,8.533
			S242.754,307.2,247.467,307.2z"/>
		<path d="M315.733,290.133H307.2c-4.713,0-8.533,3.82-8.533,8.533s3.82,8.533,8.533,8.533h8.533c4.713,0,8.533-3.82,8.533-8.533
			S320.446,290.133,315.733,290.133z"/>
		<path d="M315.733,332.8c0.001-2.263-0.898-4.434-2.499-6.035c-1.6-1.6-3.771-2.499-6.035-2.499H256
			c-4.713,0-8.533,3.82-8.533,8.533s3.821,8.533,8.533,8.533h51.2c2.263,0.001,4.434-0.898,6.035-2.499
			C314.835,337.234,315.734,335.063,315.733,332.8z"/>
		<path d="M341.333,341.333h25.6c4.713,0,8.533-3.82,8.533-8.533s-3.82-8.533-8.533-8.533h-25.6c-4.713,0-8.533,3.82-8.533,8.533
			S336.621,341.333,341.333,341.333z"/>
		<path d="M247.467,409.6h17.067c4.713,0,8.533-3.821,8.533-8.533s-3.82-8.533-8.533-8.533h-17.067c-4.713,0-8.533,3.82-8.533,8.533
			S242.754,409.6,247.467,409.6z"/>
		<path d="M358.4,392.533h-59.733c-4.713,0-8.533,3.82-8.533,8.533s3.82,8.533,8.533,8.533H358.4c4.713,0,8.533-3.821,8.533-8.533
			S363.113,392.533,358.4,392.533z"/>
		<path d="M298.667,443.733c4.713,0,8.533-3.821,8.533-8.533s-3.82-8.533-8.533-8.533h-51.2c-4.713,0-8.533,3.82-8.533,8.533
			s3.821,8.533,8.533,8.533H298.667z"/>
		<path d="M401.067,426.667H332.8c-4.713,0-8.533,3.82-8.533,8.533s3.82,8.533,8.533,8.533h68.267c4.713,0,8.533-3.821,8.533-8.533
			S405.78,426.667,401.067,426.667z"/>
		<path d="M401.067,341.333h42.667c4.713,0,8.533-3.82,8.533-8.533s-3.82-8.533-8.533-8.533h-42.667
			c-4.713,0-8.533,3.82-8.533,8.533S396.354,341.333,401.067,341.333z"/>
		<path d="M358.4,358.4h-93.867c-4.713,0-8.533,3.82-8.533,8.533s3.821,8.533,8.533,8.533H358.4c4.713,0,8.533-3.82,8.533-8.533
			S363.113,358.4,358.4,358.4z"/>
		<path d="M392.533,375.467h25.6c4.713,0,8.533-3.82,8.533-8.533s-3.82-8.533-8.533-8.533h-25.6c-4.713,0-8.533,3.82-8.533,8.533
			S387.821,375.467,392.533,375.467z"/>
		<path d="M469.333,358.4h-17.067c-4.713,0-8.533,3.82-8.533,8.533s3.82,8.533,8.533,8.533h17.067c4.713,0,8.533-3.82,8.533-8.533
			S474.046,358.4,469.333,358.4z"/>
		<path d="M258.5,270.566c3.341,3.281,8.701,3.256,12.012-0.054s3.335-8.671,0.054-12.012l-11.033-11.034l11.034-11.034
			c3.296-3.338,3.279-8.711-0.038-12.029c-3.317-3.317-8.69-3.334-12.029-0.038l-17.067,17.067c-1.601,1.6-2.5,3.77-2.5,6.033
			s0.899,4.433,2.5,6.033L258.5,270.566z"/>
		<path d="M343.834,270.566c1.6,1.601,3.77,2.5,6.033,2.5s4.433-0.899,6.033-2.5l17.067-17.067c1.601-1.6,2.5-3.77,2.5-6.033
			c0-2.263-0.899-4.433-2.5-6.033L355.9,224.366c-3.332-3.332-8.735-3.332-12.067,0c-3.332,3.332-3.332,8.735,0,12.067
			l11.033,11.034L343.833,258.5c-1.6,1.6-2.5,3.77-2.5,6.033S342.233,268.967,343.834,270.566z"/>
		<path d="M294.85,272.167c4.216,2.106,9.341,0.398,11.45-3.817l17.067-34.133c2.094-4.214,0.383-9.328-3.826-11.432
			c-4.209-2.104-9.327-0.405-11.441,3.799l-17.067,34.133c-1.013,2.024-1.179,4.368-0.463,6.516S292.825,271.155,294.85,272.167z"/>
		<path d="M119.467,102.4h17.067c14.132-0.015,25.585-11.468,25.6-25.6V59.733c-0.015-14.132-11.468-25.585-25.6-25.6h-17.067
			c-14.132,0.015-25.585,11.468-25.6,25.6V76.8C93.882,90.932,105.335,102.385,119.467,102.4z M110.933,59.733
			c0.005-4.711,3.822-8.529,8.533-8.533h17.067c4.711,0.005,8.529,3.822,8.533,8.533V76.8c-0.005,4.711-3.822,8.529-8.533,8.533
			h-17.067c-4.711-0.005-8.529-3.822-8.533-8.533V59.733z"/>
		<path d="M256,102.4h17.067c14.132-0.015,25.585-11.468,25.6-25.6V59.733c-0.015-14.132-11.468-25.585-25.6-25.6H256
			c-14.132,0.015-25.585,11.468-25.6,25.6V76.8C230.415,90.932,241.868,102.385,256,102.4z M247.467,59.733
			c0.005-4.711,3.822-8.529,8.533-8.533h17.067c4.711,0.005,8.529,3.822,8.533,8.533V76.8c-0.005,4.711-3.822,8.529-8.533,8.533H256
			c-4.711-0.005-8.529-3.822-8.533-8.533V59.733z"/>
		<path d="M486.4,119.467h-94.633c0.491-2.818,0.747-5.673,0.766-8.533c-0.042-24.958-18.061-46.254-42.667-50.429V34.133
			C349.847,15.29,334.576,0.02,315.733,0H76.8C57.957,0.02,42.687,15.29,42.667,34.133v26.371C18.038,64.64,0,85.96,0,110.933
			s18.038,46.293,42.667,50.429v9.304c0.02,18.843,15.29,34.113,34.133,34.133h44.239c-3.296,8.807-1.326,18.721,5.086,25.6
			c-6.413,6.879-8.382,16.793-5.085,25.6H76.8c-18.843,0.02-34.113,15.29-34.133,34.133v0.771
			C18.061,295.079,0.042,316.376,0,341.333v110.933c-0.001,2.263,0.898,4.434,2.499,6.035c1.6,1.6,3.771,2.499,6.035,2.499h34.133
			v8.533c-0.001,2.263,0.898,4.434,2.499,6.035s3.771,2.499,6.035,2.499v25.6c-0.001,2.263,0.898,4.434,2.499,6.035
			c1.6,1.6,3.771,2.499,6.035,2.499H486.4c14.132-0.015,25.585-11.468,25.6-25.6V145.067
			C511.985,130.935,500.532,119.482,486.4,119.467z M494.933,145.067v42.667h-307.2v-42.667c0.005-4.711,3.822-8.529,8.533-8.533
			H486.4C491.111,136.538,494.929,140.356,494.933,145.067z M110.933,187.733v-17.067h59.733v17.067H110.933z M170.667,145.067
			v8.533h-59.733v-8.533c0.005-4.711,3.822-8.529,8.533-8.533h52.772C171.227,139.266,170.695,142.153,170.667,145.067z
			 M170.667,460.8h-76.8V307.2h76.8V460.8z M375.467,110.933c-0.039,2.883-0.44,5.75-1.192,8.533h-24.408V78.013
			C364.898,81.88,375.421,95.412,375.467,110.933z M17.067,110.933c0.045-15.521,10.568-29.053,25.6-32.921v65.842
			C27.635,139.987,17.112,126.455,17.067,110.933z M59.733,170.667V34.133c0.011-9.421,7.645-17.056,17.067-17.067h238.933
			c9.421,0.011,17.056,7.645,17.067,17.067v85.333H119.467c-14.132,0.015-25.585,11.468-25.6,25.6v42.667H76.8
			C67.379,187.723,59.744,180.088,59.733,170.667z M136.533,247.467c0.005-4.711,3.822-8.529,8.533-8.533
			c4.713,0,8.533-3.821,8.533-8.533s-3.821-8.533-8.533-8.533c-4.713,0-8.533-3.821-8.533-8.533s3.821-8.533,8.533-8.533h25.6V256
			h-25.6C140.356,255.995,136.538,252.178,136.533,247.467z M59.733,290.133c0.011-9.421,7.645-17.056,17.067-17.067h93.867v17.067
			H85.333c-2.263-0.001-4.434,0.898-6.035,2.499c-1.6,1.6-2.499,3.771-2.499,6.035V460.8H59.733V290.133z M17.067,443.733v-102.4
			c0.045-15.521,10.568-29.053,25.6-32.921v135.321H17.067z M68.267,477.867h102.4v8.533c0.029,2.914,0.561,5.801,1.573,8.533
			H68.267V477.867z M486.4,494.933H196.267c-4.711-0.005-8.529-3.822-8.533-8.533V204.8h307.2v281.6
			C494.929,491.111,491.111,494.929,486.4,494.933z"/>
		<path d="M219.392,156.075c-0.816-0.771-1.772-1.379-2.817-1.792c-1.556-0.684-3.286-0.865-4.95-0.517
			c-0.535,0.096-1.053,0.27-1.537,0.517c-0.543,0.185-1.059,0.443-1.533,0.767c-0.447,0.315-0.875,0.658-1.28,1.025
			c-0.773,0.815-1.383,1.772-1.796,2.817c-0.906,2.066-0.906,4.417,0,6.483c0.78,2.141,2.467,3.828,4.608,4.608
			c1.014,0.477,2.126,0.711,3.247,0.684c2.855,0.03,5.532-1.385,7.115-3.761s1.86-5.39,0.735-8.014
			C220.77,157.848,220.162,156.892,219.392,156.075z"/>
		<path d="M253.525,156.075c-0.407-0.366-0.834-0.708-1.279-1.025c-0.475-0.325-0.992-0.582-1.538-0.767
			c-0.485-0.246-1.003-0.42-1.537-0.517c-2.81-0.558-5.715,0.305-7.763,2.308c-0.773,0.815-1.383,1.772-1.796,2.817
			c-1.357,3.176-0.646,6.858,1.796,9.301c0.829,0.753,1.78,1.359,2.813,1.792c1.014,0.477,2.126,0.71,3.246,0.683
			c2.855,0.03,5.532-1.385,7.115-3.761c1.584-2.376,1.86-5.39,0.735-8.014C254.904,157.848,254.296,156.892,253.525,156.075z"/>
		<path d="M287.659,156.075c-0.816-0.771-1.772-1.379-2.817-1.792c-1.556-0.684-3.286-0.865-4.95-0.517
			c-0.535,0.096-1.053,0.27-1.537,0.517c-0.543,0.185-1.059,0.443-1.533,0.767c-0.447,0.315-0.875,0.658-1.28,1.025
			c-0.773,0.815-1.383,1.772-1.796,2.817c-0.906,2.066-0.906,4.417,0,6.483c0.78,2.141,2.467,3.828,4.608,4.608
			c1.014,0.477,2.126,0.711,3.247,0.684c2.855,0.03,5.532-1.385,7.115-3.761s1.86-5.39,0.735-8.014
			C289.037,157.848,288.429,156.892,287.659,156.075z"/>
		<path d="M307.2,162.133c-0.001,2.263,0.898,4.434,2.499,6.035c1.6,1.6,3.771,2.499,6.035,2.499h85.333
			c4.713,0,8.533-3.821,8.533-8.533c0-4.713-3.821-8.533-8.533-8.533h-85.333c-2.263-0.001-4.434,0.898-6.035,2.499
			C308.098,157.699,307.199,159.87,307.2,162.133z"/>
		<path d="M324.267,460.8H256c-4.713,0-8.533,3.821-8.533,8.533c0,4.713,3.821,8.533,8.533,8.533h68.267
			c4.713,0,8.533-3.821,8.533-8.533C332.8,464.621,328.98,460.8,324.267,460.8z"/>
		<path d="M384,460.8h-25.6c-4.713,0-8.533,3.821-8.533,8.533c0,4.713,3.82,8.533,8.533,8.533H384c4.713,0,8.533-3.821,8.533-8.533
			C392.533,464.621,388.713,460.8,384,460.8z"/>
		<path d="M426.667,460.8h-8.533c-4.713,0-8.533,3.821-8.533,8.533c0,4.713,3.82,8.533,8.533,8.533h8.533
			c4.713,0,8.533-3.821,8.533-8.533C435.2,464.621,431.38,460.8,426.667,460.8z"/>
	</g>
</g>
<g>
</g>
<g>
</g>
<g>
</g>
<g>
</g>
<g>
</g>
<g>
</g>
<g>
</g>
<g>
</g>
<g>
</g>
<g>
</g>
<g>
</g>
<g>
</g>
<g>
</g>
<g>
</g>
<g>
</g>
</svg>
